<?xml version="1.0" encoding="utf-8"?>
<!-- Generator: Adobe Illustrator 26.0.3, SVG Export Plug-In . SVG Version: 6.00 Build 0)  -->
<svg version="1.1" id="レイヤー_1" xmlns="http://www.w3.org/2000/svg" xmlns:xlink="http://www.w3.org/1999/xlink" x="0px"
	 y="0px" width="45px" height="40px" viewBox="0 0 45 40" style="enable-background:new 0 0 45 40;" xml:space="preserve">
<style type="text/css">
	.st0{fill:#FFC800;}
	.st1{fill:#1A1A1A;}
</style>
<g>
	<g>
		<path class="st0" d="M17.55007,2.71966L0.73685,31.84102C-1.35675,35.46724,1.26024,40,5.44743,40h33.62646
			c4.18719,0,6.80418-4.53276,4.71059-8.15898L26.97125,2.71966C24.87765-0.90655,19.64367-0.90655,17.55007,2.71966z"/>
	</g>
	<g>
		<g>
			<path class="st1" d="M22.23009,33.6c-0.63628,0-1.17979-0.22562-1.63103-0.67687
				c-0.45125-0.45072-0.67688-0.99475-0.67688-1.63051c0-0.65631,0.22563-1.21036,0.67688-1.66161
				c0.45125-0.45125,0.99475-0.67687,1.63103-0.67687c0.65631,0,1.21511,0.22562,1.6769,0.67687
				c0.46127,0.45125,0.69216,1.0053,0.69216,1.66161c0,0.63576-0.2309,1.17979-0.69216,1.63051
				C23.44519,33.37437,22.8864,33.6,22.23009,33.6z M22.26066,26.98466c-0.88194,0-1.35375-0.60465-1.41543-1.81554l-0.40012-11.723
				C20.404,12.2152,20.99916,11.6,22.23009,11.6c1.27151,0,1.87669,0.6152,1.81501,1.84612l-0.39959,11.723
				C23.60387,26.38001,23.1426,26.98466,22.26066,26.98466z"/>
		</g>
	</g>
</g>
</svg>
