<svg xmlns="http://www.w3.org/2000/svg" viewBox="0 0 202.44 70"><defs><style>.cls-1{fill:#fff;}.cls-2{fill:#e1251b;}</style></defs><g id="レイヤー_2" data-name="レイヤー 2"><g id="レイヤー_1-2" data-name="レイヤー 1"><path class="cls-1" d="M188.51,54l13.11-38A12.43,12.43,0,0,0,200.4,4.64,11.56,11.56,0,0,0,190.77,0H32.69C25.26,0,17.47,5.74,14.94,13.06L.83,54A12.41,12.41,0,0,0,2,65.36,11.58,11.58,0,0,0,11.67,70H169.76c6.6,0,13.49-4.43,16.75-10.78l.12-.23.09-.24,1.75-4.61,0-.07Z"/><path class="cls-2" d="M165.88,44.39v-.94H177.7v.94Zm11.35-5.79A2.27,2.27,0,0,0,175,36.33h-6.42a2.26,2.26,0,0,0-2.27,2.27v3.94h11Zm-2-7.2a.68.68,0,0,0,.68-.68V23a.68.68,0,0,0-.68-.68h-6.82a.67.67,0,0,0-.68.68v7.72a.67.67,0,0,0,.68.68ZM167,22.6s0-.35-.7-.35c0,0-1.6-.15,0-.95l.7-.55a1.46,1.46,0,0,1,1.45-.9s.91-.45.05-.8c0,0-.6-.5.7-.85a1.93,1.93,0,0,0,1-.7s0-.2,1.57-.2h0c1.61,0,1.58.2,1.58.2a1.92,1.92,0,0,0,1,.7c1.3.35.7.85.7.85-.85.35.05.8.05.8a1.47,1.47,0,0,1,1.46.9l.7.55c1.6.8,0,.95,0,.95-.7,0-.69.37-.69.37h0v8.77a.69.69,0,0,1-.69.68s-1.24.56-1.24,1.34v2.16h-5.71V33.46c0-.94-1.25-1.39-1.25-1.39a.69.69,0,0,1-.68-.68V22.63M48.72,34.51c1.74-3.58,4.64-5.76,6.47-4.87s1.9,4.52.16,8.1-4.63,5.76-6.46,4.87S47,38.09,48.72,34.51Zm27.42-.34h7.6c.34-2.17-.1-3.94-1.31-4.53C80.66,28.78,77.9,30.8,76.14,34.17Zm51.51-4c-1.47-.72-4.06,1.54-5.78,5s-1.91,6.93-.43,7.65,4.06-1.53,5.77-5S129.13,30.87,127.65,30.14Zm69.67-15.6-13.11,38H20.88l-1.41,4.6h163c-2.43,4.72-7.77,8.32-12.71,8.32H11.67c-5.52,0-8.45-4.48-6.54-10L19.24,14.54c1.91-5.52,7.93-10,13.45-10H190.77C196.29,4.55,199.22,9,197.32,14.54ZM17,54.55a3,3,0,1,0-3,3A3,3,0,0,0,17,54.55ZM31.16,28.27c2.66-7,7.9-11.44,11.69-10,1.58.6,2.67,2.15,3.2,4.25l5.1-2.73a11,11,0,0,0-6.28-6.9c-7-2.6-15.76,3.69-19.64,14.06C22.47,34.34,23,41.8,26,46.42c0,0,4.35,8.52,15.37-.21l-2.91-4.82C31.4,46.8,30,39.2,30,39.2A19.23,19.23,0,0,1,31.16,28.27ZM59.26,40C62.55,33.75,62,27,58,24.89s-9.88,1.2-13.17,7.41-2.73,13,1.26,15.07S56,46.16,59.26,40Zm5,7.33L76,13.35H70.63L59,47.28Zm22-7H81c-1.61,2-3.52,3-4.86,2.33s-1.64-2.34-1.32-4.48H87.34c2.3-5.65,1.5-11.34-2.1-13.24-4-2.12-9.89,1.2-13.18,7.41s-2.72,13,1.26,15.07S83,46.27,86.31,40.28Zm24.52,7.06L116.17,32c1.81-5.35-2.42-7.08-2.42-7.08-4.2-1.61-7.66,1.87-7.66,1.87-1.83-4-6-1.71-7.54-.65L99,24.91H93.54L85.83,47.34h5.44L97,30.65a3.24,3.24,0,0,1,2.63-1.13c2.47-.07.83,3.94.83,3.94L95.65,47.34h5.43l4.74-13.88s1.27-4.75,4-3.88c0,0,1.8.34.37,4l-4.8,13.75Zm18.94.1,7.59-22.5h-5.14l-.58,1.72a4.78,4.78,0,0,0-1.91-1.61c-3.8-1.72-9.26,2-12.2,8.4-2.3,5-2.38,10.07-.49,12.88,0,0,3,4.29,8.08-.32l-.49,1.43Zm23.66-21.26c-2.8-3-6.89-1-8.45,0L145.4,25H140l-7.7,22.44h5.39l6-16.67a3.22,3.22,0,0,1,2.68-1.14c3.1,0,1.42,3.94,1.42,3.94L143,47.43h5.43L154,30.78A4.38,4.38,0,0,0,153.43,26.18Zm31.81,5.21a20.14,20.14,0,0,0-.14-2.34h-5.71a.49.49,0,1,1,0-1H185a19.84,19.84,0,0,0-2-6.14l-3.32,2a.48.48,0,1,1-.5-.82l3.34-2.06c-2.45-4.16-6.33-6.86-10.72-6.86s-8.28,2.7-10.73,6.87l3.42,2.1A.48.48,0,1,1,164,24l-3.39-2.08a20.09,20.09,0,0,0-2,6.14h5.62a.49.49,0,1,1,0,1h-5.74a22.61,22.61,0,0,0-.14,2.34,22.23,22.23,0,0,0,.53,4.75l5-3.09a.5.5,0,0,1,.68.16.48.48,0,0,1-.17.67l-5.28,3.24c1.84,6.66,6.8,11.44,12.64,11.44s10.78-4.76,12.63-11.41l-5.25-3.22a.49.49,0,0,1-.18-.67.5.5,0,0,1,.68-.16l5,3.07A21.88,21.88,0,0,0,185.24,31.39ZM14.24,53.6h-.89v.8h.84c.38,0,.56-.12.56-.41S14.67,53.6,14.24,53.6ZM14,52.21a2.35,2.35,0,1,0,2.35,2.34A2.35,2.35,0,0,0,14,52.21Zm1.5,3.85h-.8a1.68,1.68,0,0,1-.08-.6c0-.41,0-.56-.56-.56h-.74v1.16h-.71v-3h1.74c.92,0,1.09.58,1.09.84a.71.71,0,0,1-.53.71c.28.1.43.19.43.75s0,.54.16.59Z"/></g></g></svg>