<svg xmlns="http://www.w3.org/2000/svg" viewBox="0 0 172.32 39.5"><defs><style>.cls-1{fill:#158b48;}</style></defs><g id="レイヤー_2" data-name="レイヤー 2"><g id="レイヤー_1-2" data-name="レイヤー 1"><rect class="cls-1" x="70.35" y="0.97" width="6.31" height="22.76"/><polygon class="cls-1" points="146.25 23.73 137.26 11.64 145.62 0.96 138.15 0.96 130.87 10.88 130.87 0.96 124.56 0.96 124.56 23.72 130.87 23.73 130.87 12.26 138.44 23.72 146.25 23.73"/><path class="cls-1" d="M51.83,10.28c.4-3.1,2-5.85,5.67-5.85,2.08,0,3.81.66,4.13,2.87h6.31C67.85.68,62-.14,56.52,0,50,.22,45.8,4.08,45.2,10.28c.14-.65-.15,1.05-.08,2,.16,6.9,4.43,11.26,11.4,11.48,5.49,0,6.46-.48,11.57-1.24V12.25H57.15v2.5h4.64v4.2a17.85,17.85,0,0,1-3.28.37c-4.42,0-6.64-2.8-6.77-7.06-.05-.92.16-2.46.09-2"/><path class="cls-1" d="M40.76,11.73,36.51,1H28.82l-9,22.76h6.3l1.49-4.45h9.23l1.52,4.45h7.12Zm-5.45,3.13H29.22l3.19-9.45Z"/><path class="cls-1" d="M18.51,12.25a6.16,6.16,0,0,1,1.54,4.41c0,4.8-4.72,7.07-10,7.07S.1,22.18,0,16H6.31c0,2.14,1.54,3.3,3.82,3.3,1.44,0,3.3-.75,3.3-2.27,0-3.09-4.66-2.42-9.61-4.6l-.37-.19a5.7,5.7,0,0,1-2.16-2A6.3,6.3,0,0,1,.38,6.89C.63,1.5,5.36,0,10.12,0s9.52,1.67,9.14,7.16H13a2.35,2.35,0,0,0-.83-2,3.62,3.62,0,0,0-2.43-.73C8.26,4.43,7,5.38,7,6.51c0,1.67,2,2.21,3.69,2.65,1.37.35,3,.63,4.43,1.12a6.91,6.91,0,0,1,3.39,2"/><path class="cls-1" d="M96.48,12.25A6.12,6.12,0,0,1,98,16.66c0,4.8-4.72,7.07-10,7.07S78.08,22.18,78,16h6.31c0,2.14,1.54,3.3,3.81,3.3,1.45,0,3.31-.75,3.31-2.27,0-3.09-4.67-2.42-9.62-4.6l-.36-.19a5.69,5.69,0,0,1-2.17-2,6.48,6.48,0,0,1-.91-3.39C78.61,1.5,83.34,0,88.1,0s9.52,1.67,9.14,7.16h-6.3a2.35,2.35,0,0,0-.83-2,3.6,3.6,0,0,0-2.43-.73c-1.45,0-2.7,1-2.7,2.08,0,1.67,2,2.21,3.69,2.65,1.37.35,3,.63,4.43,1.12a6.8,6.8,0,0,1,3.38,2"/><path class="cls-1" d="M119,11.73,114.71,1H107L98,23.72h6.3l1.49-4.45h9.23l1.51,4.45h7.13Zm-5.45,3.13h-6.09l3.19-9.45Z"/><path class="cls-1" d="M167.59,11.73,163.34,1h-7.69l-9,22.76H153l1.49-4.45h9.23l1.52,4.45h7.12Zm-5.45,3.13h-6.09l3.19-9.45Z"/><path class="cls-1" d="M46.45,33.17c0,3.38,2,4,3.21,4s3.21-.53,3.21-4-2.1-4-3.21-4-3.21.57-3.21,4m3.21,6.33c-3.08,0-6-2.08-6-6.33s2.94-6.33,6-6.33,6,2.06,6,6.33-3,6.33-6,6.33"/><path class="cls-1" d="M60.05,32.56h3.43a1.69,1.69,0,0,0,1.82-1.64,1.61,1.61,0,0,0-1.75-1.6h-3.5Zm7.85,4.79c0,1.31.24,1.45.47,1.57v.24H65.48a3.72,3.72,0,0,1-.3-1.53V36.4a1.71,1.71,0,0,0-2-1.8H60.05v4.56H57.31v-12h6.47c3.06,0,4.24,1.57,4.24,3.25a3.36,3.36,0,0,1-.77,2.12,3.42,3.42,0,0,1-1.65,1,2.45,2.45,0,0,1,1.28.4,2.48,2.48,0,0,1,1,2.13Z"/><rect class="cls-1" x="70.08" y="27.18" width="2.83" height="11.99"/><path class="cls-1" d="M83.8,31.09a3,3,0,0,0-2.91-2,2.89,2.89,0,0,0-2.07.82c-.36.36-1.09,1.08-1.09,3.43,0,2.71,1.59,3.84,3.22,3.84a3,3,0,0,0,3-2.51H81.29v-2h5.44v6.4H84.85l-.14-1.26A4.76,4.76,0,0,1,81,39.5c-3.47,0-6.1-2.34-6.1-6.33,0-4.3,3-6.33,6-6.33a5.71,5.71,0,0,1,5.75,4.25Z"/><rect class="cls-1" x="88.94" y="27.18" width="2.83" height="11.99"/><polygon class="cls-1" points="102.81 39.16 96.76 31.01 96.85 39.16 94.16 39.16 94.16 27.18 96.76 27.18 102.81 35.33 102.72 27.18 105.41 27.18 105.41 39.16 102.81 39.16"/><path class="cls-1" d="M114.29,35.06l-1.7-5.3-1.7,5.3Zm-4,1.9-.72,2.2h-2.83l4.34-12h3.06l4.33,12h-2.83l-.71-2.2Z"/><polygon class="cls-1" points="119.8 39.16 119.8 27.18 122.54 27.18 122.54 36.93 128.68 36.93 128.68 39.16 119.8 39.16"/></g></g></svg>