<svg xmlns="http://www.w3.org/2000/svg" viewBox="0 0 506.65 70.26"><defs><style>.cls-1,.cls-2{fill:#fff;}.cls-1{stroke:#231815;}.cls-1,.cls-3{stroke-width:0.25px;}.cls-3{fill:#898989;stroke:#c9c5c0;}.cls-4{fill:#e31b13;}.cls-5{fill:none;stroke:#e31b13;stroke-width:1.02px;}</style></defs><g id="レイヤー_2" data-name="レイヤー 2"><g id="レイヤー_1-2" data-name="レイヤー 1"><path class="cls-1" d="M94.44,4.16c.48-.49,1.18-.84,1-1.47a.37.37,0,0,0-.47-.2c-5,2.28-9.13,5.65-14,7.49-1.39.64-2.65,1.25-3.93,1.89,0,0,0,0,0-.12C78.85,10.3,81,9,82.7,7.5c2.63-2.38,5.74-4.11,7.13-7,0-.17,0-.2,0-.32-.81,0-1.46.79-2.06,1.3-2.11,2.11-4.3,4.16-6.63,6.11-1.21.63-2,1.7-3.21,2.37-3.34,2.38-7.21,4.71-10.56,6.9a40.33,40.33,0,0,0-4,2.63c.34-1.29,1.14-2.87.71-4.15,0,0-.13,0-.21-.07l.26-1.48c0-.1-.13-.17-.3-.22-.45,0-.61.53-.89.81-1.81,3-3.41,6.12-5.65,8.4a31,31,0,0,1-7.06,4.89c-.18,0-.05-.18-.06-.3l-.58-.89c0-.1.23-.06.32-.16s.06-.56-.09-.72a6.84,6.84,0,0,1-.63-1c.12-.12.32-.08.44-.23.19-.8-.52-1.16-.76-1.85.16-.11.42-.11.52-.36L49,20.89c0-.08.13,0,.21-.09.29-.36.1-.89-.06-1.24-.84-2.25-3.34-3.22-5.92-3.67a29.31,29.31,0,0,0,4.68-1c.65-.3,3.47-1.38,3.36-1.65-3.26.7-8.86.16-11.65.43a.41.41,0,0,0,0-.1,23.88,23.88,0,0,0,3.41-1.07A9.28,9.28,0,0,0,45.69,11,7.45,7.45,0,0,0,47.3,9.44c.25-.5,1.24-2.15,1.15-2.1a24.46,24.46,0,0,1-4.73,1.78,45.12,45.12,0,0,0-5.24,1.79c2-1.41,5.61-3.42,6.81-5.08a16.35,16.35,0,0,0,1-2.25,14.65,14.65,0,0,1-3,1.93,67.37,67.37,0,0,1-7.84,3.94c1.64-1.85,4.62-3.21,6.11-5.22C42,3.82,43,1.47,42.72,1.38a44.6,44.6,0,0,1-4.83,3.33c-1.07.6-2,1.32-3,1.9-.32.31-.87.49-1.11.92-1.62.93-3.42,2.69-5.26,3.38l-.13-.9s-.13,0-.21-.07l-.53.2c-1.47,1.33-2.6,3.55-2.18,5.37a8.88,8.88,0,0,0,.71,2.2,11.43,11.43,0,0,0,1.84,2.5l.24.27c.85,1.57,1.79,3.11,2.54,4.72a30,30,0,0,1,1,9.48c0,.14-.07.27-.12.41a2.37,2.37,0,0,1,.09.36c0,.36,0,.72,0,1.08,0,.06,0,.14,0,.14-1.19-.45-2.8.11-4.23.31-.08,0,.62-.75.59-.83a14.43,14.43,0,0,1-2,.9c-.11,0,.59-.66.49-.63a22.38,22.38,0,0,1-2.85,1.49A10.77,10.77,0,0,0,21.48,40,2.71,2.71,0,0,0,21,41.89c-1,1-2.91,2.23-2.68,3.71.36.7.95,1.94,1.8,2.29,0-1.92,3.35-3,3.88-3.06a.61.61,0,0,0,.28-.13,1.53,1.53,0,0,1,1.54.54A18.65,18.65,0,0,1,28.62,53c.1,0,0,.1.13,0s.18-.22.38-.28l.43,1.21c-1.39.39-2.95.49-4,1.61a.69.69,0,0,0-.12.16c0,.07.06.09.14.15a.46.46,0,0,1,.05.14,10.87,10.87,0,0,0-3,4.13,5.56,5.56,0,0,1-3.23,1.81c-1,0-2.09-.51-3,.18,0,.22.39,0,.58.08-.33.28-1.08.59-1.21,1.16l0,.16c.19.15.51-.32.7-.44a.77.77,0,0,1,.78-.08,1.8,1.8,0,0,1,.29.44,1.88,1.88,0,0,1-1.19.72c-1.08.16-1.52-.61-2-1.24a2.64,2.64,0,0,0-.69-.65,1.67,1.67,0,0,0-.81,0l-.35.24c.24.2,1-.08,1.08.39a.51.51,0,0,0,.16.36l-.39.66c0,.1.15.2,0,.35-1.3-.18-1.51-1.32-2.5-1.88a4.21,4.21,0,0,0-1.8.28c.58.12,1.52,0,1.78.59,0,.08-.07.08-.21.12a1.88,1.88,0,0,0-.4.4,1,1,0,0,0,0,.81l1.46.8s0,.08,0,.13l-.35.13-1-.1a1.55,1.55,0,0,0-.93,1l.95-.44c.22,0,.3.15.44.23l.07.44a1.45,1.45,0,0,0,1.3,0,2.72,2.72,0,0,1,2-.69c.26,0,.4.09.49.28,0,.46-.47.9-.39,1.4A1.47,1.47,0,0,0,14.4,69c-.12.53-.73.7-1.18,1,0,.07.1.15.19.15l1.13-.33c1.95.11,2.79-1.53,4.3-2.13a5.59,5.59,0,0,1,4.29-1.6,2.1,2.1,0,0,1,.83-.13l.45.69.28,0a2,2,0,0,0,.69-.72.83.83,0,0,1,.34-.16.47.47,0,0,1,.14,0c.38.35.28,1.07.94,1.27.18,0,.31,0,.42-.07l.35-1a.29.29,0,0,1,.15,0c.63.28.6,1.29,1.54,1.46.59-.5.4-1.29.59-1.91.36-.26.92.37,1.43-.12.75,0,1.17.58,2,.57l.12-.08a1.07,1.07,0,0,0,.11-.81c.37-.32.91-.08,1.34,0l.53-.52,1.19-.2.45-.84a4.35,4.35,0,0,0,3.36-1.85c.31,0,.18.63.25.89s0,.24,0,.31c.24.28.83.16,1.2.44a3.25,3.25,0,0,0,.89-.08l.62-.62-.85-.78.68-2.59c.78-.19,1.47.38,2.06.62a7.75,7.75,0,0,0,5.3,1.06l.36-.2-.48-.95c2,.61,4.24,1.61,6.65,1.12.19,0,.37,0,.46-.17l-.91-.95c0-.06,0-.11.08-.12a11.68,11.68,0,0,0,6.06,1.12v-.43a8.56,8.56,0,0,0,6-.53c.76-.22,1.35-.16,2-.35a3.82,3.82,0,0,0,1.63-.34,1.31,1.31,0,0,0,.7-1.28c-.71-.34-1.86.33-2.71.08-.21,0-.38,0-.54,0,.62-.42,1.57-.52,2.18-1.17l-1-.32c0-.11-.12,0,0-.13l.41-.22c0-.08,0-.13.09-.22a.41.41,0,0,0-.25-.31c-.09,0-.14,0-.27.08-.86.2-1.65.2-2.44.37a43.34,43.34,0,0,1-14.13-.22c-.36-.07-.81,0-1-.3s.27-.8.59-1.1l1.09-1.93-.08-.57a4.2,4.2,0,0,0,.8-1.71l2-.29a15.25,15.25,0,0,1,1.62-2.42,3,3,0,0,0,1.1-2.37l2.24-2.29c0-.13-.09-.24-.13-.36.52-.52,1.28-.85,1.56-1.62a11.5,11.5,0,0,1,1-2.29c.58-1,1.46-1.49,2-2.42l-.09-.37c.59-.7,1.89-.9,2.21-1.91.13-.37,0-.63,0-.88.55-.61,1.85-.82,2-1.78,0-.17,0-.24,0-.3.58-.82,2.2-1.29,2-2.35.73-1.28,2.86-2,3.3-3.33a1.1,1.1,0,0,0-.59-.13c-.08,0-.14-.06-.1-.15.56-.3,1.29-.42,1.86-.73a6.1,6.1,0,0,0,2.92-1.86.71.71,0,0,1,.49-.63,4.37,4.37,0,0,0,1.77-1.29s0-.09,0-.14-.18-.22-.27-.37c1.25-.78,3.23-1.5,4.2-3a.56.56,0,0,0,0-.59l-1.22-.32c1.42-1.25,3.76-1.8,5.1-3.52,0-.09,0-.17,0-.21-4.18.6-7.39,3-11.57,4.14-.32,0-.54.25-.79.18,0-.1-.09,0,0-.14,5-2.52,10.22-4.29,14.68-8.24l.19-.44-.1-.3c-1.85.13-3.43,1.45-5.12,2.1A66.49,66.49,0,0,1,75.5,14.41s-.12,0-.1-.08c2.37-1.28,4.88-2.21,7.4-3.38C86.71,8.85,90.7,7.18,94.44,4.16Z"/><path class="cls-2" d="M21.45,41.4c.16-.43.05-.83.51-1.17a7.31,7.31,0,0,0,1.12-.9C23.29,39.09,22.76,41.14,21.45,41.4Z"/><path class="cls-3" d="M85.84,4.16c.48-.49,1.18-.84,1.06-1.47a.38.38,0,0,0-.48-.2c-5,2.28-9.13,5.65-14,7.49-1.4.64-2.65,1.25-3.93,1.89,0,0,0,0,0-.12C70.25,10.3,72.36,9,74.11,7.5c2.63-2.38,5.73-4.11,7.13-7,0-.17,0-.2,0-.32-.81,0-1.45.79-2.06,1.3-2.11,2.11-4.29,4.16-6.62,6.11-1.21.63-2,1.7-3.21,2.37-3.34,2.38-7.22,4.71-10.56,6.9a41.67,41.67,0,0,0-4,2.63c.35-1.29,1.14-2.87.71-4.15,0,0-.13,0-.2-.07l.25-1.48c0-.1-.13-.17-.3-.22-.44,0-.6.53-.89.81-1.8,3-3.41,6.12-5.64,8.4a31.24,31.24,0,0,1-7.06,4.89c-.19,0-.06-.18-.07-.3L41,26.43c.05-.1.23-.06.31-.16a.58.58,0,0,0-.08-.72,6.84,6.84,0,0,1-.63-1c.11-.12.32-.08.44-.23.18-.8-.52-1.16-.77-1.85.17-.11.42-.11.53-.36l-.32-1.25c0-.08.13,0,.21-.09.29-.36.1-.89-.06-1.24-.85-2.25-3.34-3.22-5.93-3.67a29.67,29.67,0,0,0,4.69-1c.65-.3,3.46-1.38,3.36-1.65-3.26.7-8.86.16-11.65.43,0,0,0,0,0-.1a24.29,24.29,0,0,0,3.41-1.07A9.42,9.42,0,0,0,37.1,11a7.93,7.93,0,0,0,1.61-1.56c.25-.5,1.24-2.15,1.15-2.1a24.46,24.46,0,0,1-4.73,1.78,45.12,45.12,0,0,0-5.24,1.79c2-1.41,5.61-3.42,6.81-5.08a16,16,0,0,0,1-2.25,14.61,14.61,0,0,1-3,1.93,69,69,0,0,1-7.84,3.94C28.51,7.6,31.49,6.24,33,4.23c.39-.41,1.4-2.76,1.14-2.85a45.56,45.56,0,0,1-4.84,3.33c-1.07.6-2,1.32-3,1.9-.31.31-.86.49-1.1.92-1.63.93-3.42,2.69-5.27,3.38l-.13-.9s-.12,0-.2-.07l-.53.2c-1.47,1.33-2.6,3.55-2.18,5.37a8.48,8.48,0,0,0,.71,2.2,11.43,11.43,0,0,0,1.84,2.5c.08.09.15.19.23.27.86,1.57,1.79,3.11,2.55,4.72a30,30,0,0,1,1,9.48c0,.14-.07.27-.11.41a2.37,2.37,0,0,1,.09.36c0,.36,0,.72,0,1.08a.87.87,0,0,0,0,.14c-1.19-.45-2.8.11-4.23.31-.09,0,.62-.75.59-.83a14.51,14.51,0,0,1-2,.9c-.1,0,.59-.66.49-.63a21.12,21.12,0,0,1-2.85,1.49A11,11,0,0,0,12.89,40a2.66,2.66,0,0,0-.53,1.91c-1,1-2.91,2.23-2.69,3.71.37.7,1,1.94,1.81,2.29,0-1.92,3.34-3,3.88-3.06a.66.66,0,0,0,.28-.13,1.53,1.53,0,0,1,1.54.54A18.65,18.65,0,0,1,20,53c.1,0,0,.1.13,0s.18-.22.37-.28L21,53.91c-1.39.39-2.95.49-4,1.61a.69.69,0,0,0-.12.16c0,.07.06.09.13.15A.28.28,0,0,1,17,56a11,11,0,0,0-3,4.13,5.62,5.62,0,0,1-3.23,1.81c-1,0-2.09-.51-3,.18,0,.22.39,0,.59.08-.33.28-1.08.59-1.21,1.16l0,.16c.18.15.51-.32.7-.44A.77.77,0,0,1,8.62,63a2.16,2.16,0,0,1,.29.44,1.93,1.93,0,0,1-1.19.72c-1.08.16-1.52-.61-2-1.24A2.64,2.64,0,0,0,5,62.24a1.67,1.67,0,0,0-.81,0l-.36.24c.25.2,1-.08,1.09.39a.44.44,0,0,0,.16.36l-.4.66c0,.1.15.2,0,.35C3.39,64,3.18,62.89,2.2,62.33a4.18,4.18,0,0,0-1.8.28c.58.12,1.52,0,1.78.59,0,.08-.08.08-.21.12a1.9,1.9,0,0,0-.41.4,1,1,0,0,0,.05.81l1.45.8s0,.08,0,.13l-.34.13-1-.1a1.59,1.59,0,0,0-.94,1l1-.44c.23,0,.3.15.45.23l.06.44a1.48,1.48,0,0,0,1.31,0A2.71,2.71,0,0,1,5.51,66c.26,0,.41.09.5.28,0,.46-.48.9-.4,1.4A1.5,1.5,0,0,0,5.8,69c-.12.53-.73.7-1.17,1,0,.07.09.15.18.15l1.13-.33c2,.11,2.79-1.53,4.3-2.13a5.62,5.62,0,0,1,4.29-1.6,2.13,2.13,0,0,1,.83-.13l.45.69.29,0a2,2,0,0,0,.69-.72.72.72,0,0,1,.34-.16.45.45,0,0,1,.13,0c.39.35.29,1.07.94,1.27.19,0,.31,0,.42-.07L19,66a.29.29,0,0,1,.15,0c.63.28.6,1.29,1.53,1.46.6-.5.41-1.29.6-1.91.36-.26.92.37,1.42-.12.75,0,1.18.58,2,.57l.13-.08a1,1,0,0,0,.1-.81c.38-.32.92-.08,1.35,0l.53-.52,1.19-.2.45-.84a4.37,4.37,0,0,0,3.36-1.85c.31,0,.17.63.24.89a.64.64,0,0,0,0,.31c.24.28.84.16,1.21.44a3.14,3.14,0,0,0,.88-.08l.63-.62-.85-.78.68-2.59c.77-.19,1.46.38,2,.62A7.79,7.79,0,0,0,42,60.89l.36-.2-.48-.95c2,.61,4.23,1.61,6.64,1.12.19,0,.38,0,.46-.17l-.9-.95c0-.06,0-.11.07-.12a11.72,11.72,0,0,0,6.07,1.12v-.43a8.57,8.57,0,0,0,6-.53c.76-.22,1.34-.16,2-.35a3.82,3.82,0,0,0,1.63-.34,1.29,1.29,0,0,0,.69-1.28c-.7-.34-1.85.33-2.71.08-.21,0-.37,0-.53,0,.62-.42,1.56-.52,2.17-1.17l-1-.32c0-.11-.12,0,0-.13l.41-.22c.06-.08,0-.13.1-.22a.44.44,0,0,0-.26-.31l-.27.08c-.85.2-1.64.2-2.44.37a43.34,43.34,0,0,1-14.13-.22c-.35-.07-.8,0-1-.3s.27-.8.59-1.1l1.09-1.93-.08-.57a4.18,4.18,0,0,0,.79-1.71l2-.29a15.3,15.3,0,0,1,1.63-2.42A3,3,0,0,0,52,45.06l2.24-2.29c0-.13-.09-.24-.14-.36.52-.52,1.29-.85,1.56-1.62a12.75,12.75,0,0,1,1.05-2.29c.58-1,1.46-1.49,2-2.42l-.1-.37c.6-.7,1.9-.9,2.22-1.91.13-.37,0-.63,0-.88.55-.61,1.85-.82,2-1.78a1.06,1.06,0,0,1,0-.3c.57-.82,2.2-1.29,1.95-2.35.73-1.28,2.86-2,3.31-3.33a1.12,1.12,0,0,0-.59-.13c-.08,0-.15-.06-.1-.15.55-.3,1.28-.42,1.85-.73a6.05,6.05,0,0,0,2.92-1.86.74.74,0,0,1,.5-.63,4.41,4.41,0,0,0,1.76-1.29s0-.09,0-.14-.18-.22-.26-.37c1.25-.78,3.23-1.5,4.2-3a.56.56,0,0,0,0-.59l-1.22-.32c1.41-1.25,3.76-1.8,5.09-3.52,0-.09,0-.17,0-.21-4.19.6-7.39,3-11.58,4.14-.31,0-.53.25-.78.18,0-.1-.1,0,0-.14,5-2.52,10.23-4.29,14.69-8.24l.19-.44-.1-.3c-1.85.13-3.44,1.45-5.12,2.1a67,67,0,0,1-12.77,4.91s-.13,0-.11-.08c2.37-1.28,4.88-2.21,7.41-3.38C78.11,8.85,82.1,7.18,85.84,4.16Z"/><path class="cls-2" d="M12.86,41.4c.16-.43,0-.83.5-1.17a8,8,0,0,0,1.13-.9C14.7,39.09,14.17,41.14,12.86,41.4Z"/><path class="cls-2" d="M80.94,56.39c-1.75,0-2.75-1.6-2.29-4a7.7,7.7,0,0,1,.41-1.41L88.5,26.41C89.64,23.46,92.36,21,94.6,21h25L108,50.93c-1.14,3-3.86,5.46-6.1,5.46h-4l6.81-17.72H93.76c-1.12,0-2.47,1.22-3,2.7l-5.81,15Zm28.51-30h-11c-1.16,0-2.47,1.22-3.06,2.69l-.54,1.41a3.07,3.07,0,0,0-.17.68c-.23,1.22.24,2,1.14,2h9c1.12,0,2.48-1.23,3-2.7Z"/><path class="cls-2" d="M140.41,21l-2.11,5.46c1.14-2.95,3.81-5.46,6.1-5.46h11.93l-11.55,30c-1.14,3-3.81,5.46-6.06,5.46h-4l11.55-30h-2c-1.13,0-2.48,1.22-3,2.76l-8.38,21.76c-1.14,3-3.86,5.46-6.11,5.46h-4l11.56-30h-2c-1.17,0-2.47,1.22-3.08,2.76L118.76,56.39h-4c-1.75,0-2.75-1.6-2.29-4a8.28,8.28,0,0,1,.4-1.41l9.45-24.52c1.14-2.95,3.86-5.46,6.1-5.46Z"/><path class="cls-2" d="M150.93,56.39c-1.76,0-2.75-1.6-2.29-4a8.28,8.28,0,0,1,.4-1.41l9.45-24.52c1.14-2.95,3.86-5.46,6.1-5.46h24.94c-1.14,2.94-3.86,5.46-6.1,5.46H168.49c-1.17,0-2.47,1.22-3.08,2.76l-.52,1.34a4.27,4.27,0,0,0-.18.68c-.23,1.22.25,2,1.15,2h18.93c-1.14,2.94-3.82,5.46-6.1,5.46H163.75c-1.12,0-2.48,1.22-3,2.76-.51,1.29-2.65,6.44-2.85,7.48-.23,1.22.29,2,1.14,2h19c-1.14,3-3.86,5.46-6.1,5.46Z"/><path class="cls-2" d="M203.1,56.39h-4L206,38.67h7.94l-4.7,12.26C208.06,53.88,205.34,56.39,203.1,56.39ZM220.76,21l-2.64,6.8c-2.28,5.89-7.67,10.92-12.16,10.92H195c-1.12,0-2.48,1.22-3,2.7l-5.81,15h-4c-1.75,0-2.75-1.6-2.29-4a8.57,8.57,0,0,1,.41-1.41l9.49-24.52c1.09-2.95,3.81-5.46,6.05-5.46ZM204.08,33.21c2.24,0,4.92-2.51,6.06-5.46l.52-1.34H199.72c-1.17,0-2.48,1.22-3.07,2.69l-.54,1.41a3.75,3.75,0,0,0-.17.68c-.23,1.22.29,2,1.14,2Z"/><path class="cls-2" d="M212.39,56.39l11.55-30c1.14-2.95,3.82-5.46,6.1-5.46h4l-11.56,30c-1.14,3-3.86,5.46-6.1,5.46Z"/><path class="cls-2" d="M231.09,56.39c-3.49,0-5.49-3.19-4.57-8.1a17.89,17.89,0,0,1,.81-2.82l5.27-13.61C234.83,26,240.23,21,244.76,21h20.95q-1.32,3.4-2.63,6.8c-1.14,2.95-3.82,5.46-6.11,5.46h-4l2.64-6.8h-9c-2.24,0-5,2.51-6.1,5.45l-5.23,13.61a9.66,9.66,0,0,0-.4,1.41c-.46,2.46.54,4,2.29,4h5c2.28,0,4.91-2.51,6.1-5.46.17-.42.35-.92.53-1.34,1.13-3,3.76-5.46,6.05-5.46h4l-2.64,6.8c-2.23,5.89-7.63,10.92-12.16,10.92Z"/><path class="cls-2" d="M259.4,56.39c-1.75,0-2.75-1.6-2.28-4a7.69,7.69,0,0,1,.4-1.41L267,26.41c1.13-2.95,3.86-5.46,6.1-5.46H298l-11.55,30c-1.14,3-3.86,5.46-6.1,5.46h-4l6.81-17.72H272.23c-1.13,0-2.48,1.22-3,2.7l-5.8,15Zm28.52-30H277c-1.17,0-2.48,1.22-3.07,2.69l-.53,1.41a3.72,3.72,0,0,0-.18.68c-.23,1.22.25,2,1.15,2h9c1.12,0,2.47-1.23,3-2.7Z"/><path class="cls-2" d="M315.08,50.93l9.44-24.52c1.15-2.95,3.82-5.46,6.06-5.46h4L323,50.93c-1.14,3-3.82,5.46-6.06,5.46H305c-1.76,0-2.76-1.6-2.29-4a8.28,8.28,0,0,1,.4-1.41l9.45-24.52h-2c-1.16,0-2.47,1.22-3.08,2.76L297,56.39h-4c-1.75,0-2.75-1.6-2.29-4a8.28,8.28,0,0,1,.4-1.41l9.45-24.52c1.14-2.95,3.86-5.46,6.1-5.46h12c1.75,0,2.75,1.59,2.28,4.05a7.69,7.69,0,0,1-.4,1.41l-8.39,21.82a3.62,3.62,0,0,0-.22.68c-.23,1.22.29,2,1.14,2Z"/><path class="cls-2" d="M338.07,56.39c-1.75,0-2.75-1.6-2.29-4a8.28,8.28,0,0,1,.4-1.41l9.45-24.52c1.14-2.95,3.86-5.46,6.1-5.46h24.95c-1.14,2.94-3.86,5.46-6.11,5.46H355.63c-1.16,0-2.47,1.22-3.08,2.76L352,30.51a3.38,3.38,0,0,0-.17.68c-.24,1.22.24,2,1.14,2h18.93c-1.14,2.94-3.81,5.46-6.1,5.46H350.89c-1.12,0-2.48,1.22-3,2.76-.51,1.29-2.65,6.44-2.85,7.48-.23,1.22.29,2,1.15,2h19c-1.14,3-3.86,5.46-6.1,5.46Z"/><path class="cls-2" d="M370.91,56.39c-1.75,0-2.75-1.6-2.29-4a8.57,8.57,0,0,1,.4-1.41l9.45-24.52c1.14-2.95,3.86-5.46,6.1-5.46h24.95L398,50.93c-1.14,3-3.86,5.46-6.1,5.46h-4l6.81-17.72H383.73c-1.12,0-2.48,1.22-3,2.7l-5.8,15Zm28.51-30H388.47c-1.16,0-2.47,1.22-3.07,2.69l-.53,1.41a3.07,3.07,0,0,0-.17.68c-.24,1.22.24,2,1.14,2h9c1.13,0,2.48-1.23,3-2.7Z"/><path class="cls-2" d="M407.11,56.39c-3.5,0-5.5-3.19-4.57-8.1a16.88,16.88,0,0,1,.81-2.82l5.27-13.61C410.85,26,416.29,21,420.78,21h21c-1.14,2.94-3.82,5.46-6.1,5.46h-13c-2.24,0-5,2.51-6.06,5.45l-5.27,13.61a8.55,8.55,0,0,0-.4,1.41c-.46,2.46.54,4,2.28,4h5c2.29,0,5-2.51,6.11-5.46.88-2.26,1.75-4.53,2.63-6.8h-10c1.14-2.94,3.86-5.46,6.1-5.46h14l-4.7,12.26c-2.28,5.89-7.67,10.92-12.2,10.92Z"/><path class="cls-2" d="M436.77,56.39c-1.75,0-2.75-1.6-2.29-4a8.28,8.28,0,0,1,.4-1.41l9.45-24.52c1.14-2.95,3.86-5.46,6.1-5.46h4l-10.5,27.28a3.62,3.62,0,0,0-.22.68c-.23,1.22.29,2,1.19,2h18.93c-1.14,3-3.86,5.46-6.1,5.46Z"/><path class="cls-2" d="M466.65,56.39c-1.75,0-2.76-1.6-2.29-4a8.28,8.28,0,0,1,.4-1.41l9.45-24.52c1.14-2.95,3.86-5.46,6.1-5.46h24.94c-1.14,2.94-3.86,5.46-6.1,5.46H484.21c-1.17,0-2.48,1.22-3.08,2.76l-.52,1.34a4.27,4.27,0,0,0-.18.68c-.23,1.22.25,2,1.14,2h18.94c-1.14,2.94-3.82,5.46-6.1,5.46H479.47c-1.13,0-2.48,1.22-3,2.76-.51,1.29-2.65,6.44-2.85,7.48-.23,1.22.29,2,1.14,2h19c-1.15,3-3.86,5.46-6.1,5.46Z"/><path class="cls-4" d="M78.69,56.2c-1.75,0-2.75-1.59-2.29-4a8.57,8.57,0,0,1,.4-1.41l9.45-24.53c1.14-2.94,3.86-5.46,6.1-5.46h24.94l-11.55,30c-1.14,2.94-3.86,5.45-6.1,5.45h-4l6.82-17.72H91.51c-1.12,0-2.48,1.23-3,2.7l-5.81,15Zm28.51-30h-11c-1.16,0-2.47,1.23-3.07,2.7l-.53,1.41a3,3,0,0,0-.17.67c-.24,1.23.24,2,1.14,2h9c1.12,0,2.48-1.23,3-2.7Z"/><path class="cls-4" d="M138.16,20.76l-2.11,5.46c1.14-2.94,3.81-5.46,6.1-5.46h11.93l-11.55,30c-1.14,2.94-3.82,5.45-6.06,5.45h-4l11.55-30h-2c-1.12,0-2.47,1.23-3,2.76l-8.39,21.77c-1.14,2.94-3.86,5.45-6.1,5.45h-4l11.55-30h-2c-1.17,0-2.48,1.23-3.08,2.76L116.51,56.2h-4c-1.75,0-2.75-1.59-2.28-4a8.28,8.28,0,0,1,.4-1.41l9.45-24.53c1.14-2.94,3.86-5.46,6.1-5.46Z"/><path class="cls-4" d="M148.67,56.2c-1.75,0-2.75-1.59-2.28-4a8.28,8.28,0,0,1,.4-1.41l9.44-24.53c1.15-2.94,3.86-5.46,6.11-5.46h24.94c-1.14,2.95-3.86,5.46-6.1,5.46H166.24c-1.17,0-2.48,1.23-3.08,2.76l-.53,1.35a4.11,4.11,0,0,0-.17.67c-.23,1.23.25,2,1.14,2h18.94c-1.14,2.94-3.82,5.45-6.11,5.45H161.49c-1.12,0-2.47,1.23-3,2.76-.51,1.29-2.65,6.44-2.85,7.48-.23,1.23.29,2,1.14,2h19c-1.14,2.94-3.86,5.45-6.11,5.45Z"/><path class="cls-4" d="M200.85,56.2h-4l6.86-17.72h7.94L207,50.75C205.81,53.69,203.09,56.2,200.85,56.2Zm17.66-35.44-2.64,6.81c-2.28,5.88-7.67,10.91-12.16,10.91h-11c-1.12,0-2.48,1.23-3,2.7l-5.81,15h-4c-1.75,0-2.75-1.59-2.29-4a8.57,8.57,0,0,1,.4-1.41l9.49-24.53c1.1-2.94,3.82-5.46,6.06-5.46ZM201.83,33c2.24,0,4.92-2.52,6.06-5.46l.52-1.35H197.46c-1.16,0-2.47,1.23-3.07,2.7l-.53,1.41a3,3,0,0,0-.17.67c-.24,1.23.29,2,1.14,2Z"/><path class="cls-4" d="M210.14,56.2l11.55-30c1.14-2.94,3.82-5.46,6.1-5.46h4l-11.56,30c-1.14,2.94-3.86,5.45-6.1,5.45Z"/><path class="cls-4" d="M228.84,56.2c-3.49,0-5.49-3.18-4.56-8.09a15.7,15.7,0,0,1,.8-2.82l5.27-13.61c2.23-5.89,7.63-10.92,12.16-10.92h20.95l-2.64,6.81C259.68,30.51,257,33,254.72,33h-4l2.63-6.81h-9c-2.24,0-5,2.51-6.1,5.46l-5.23,13.61a8.28,8.28,0,0,0-.4,1.41c-.46,2.45.54,4,2.29,4h5c2.28,0,4.91-2.52,6.1-5.46.17-.43.35-.92.52-1.35,1.14-2.94,3.77-5.46,6.06-5.46h4L254,45.29c-2.24,5.89-7.63,10.91-12.16,10.91Z"/><path class="cls-4" d="M257.15,56.2c-1.75,0-2.75-1.59-2.29-4a8.57,8.57,0,0,1,.41-1.41l9.44-24.53c1.14-2.94,3.86-5.46,6.1-5.46h24.95l-11.56,30c-1.14,2.94-3.86,5.45-6.1,5.45h-4l6.81-17.72H270c-1.12,0-2.47,1.23-3,2.7l-5.81,15Zm28.51-30H274.72c-1.17,0-2.48,1.23-3.07,2.7l-.54,1.41a3,3,0,0,0-.17.67c-.23,1.23.24,2,1.14,2h9c1.12,0,2.48-1.23,3-2.7Z"/><path class="cls-4" d="M312.82,50.75l9.45-24.53c1.14-2.94,3.81-5.46,6.06-5.46h4l-11.55,30c-1.14,2.94-3.82,5.45-6.06,5.45h-12c-1.75,0-2.75-1.59-2.28-4a7.46,7.46,0,0,1,.4-1.41l9.44-24.53h-2c-1.17,0-2.48,1.23-3.08,2.76L294.74,56.2h-4c-1.75,0-2.75-1.59-2.28-4a8.28,8.28,0,0,1,.4-1.41l9.44-24.53c1.14-2.94,3.86-5.46,6.11-5.46h12c1.75,0,2.75,1.6,2.29,4a7.69,7.69,0,0,1-.4,1.41l-8.4,21.83a3.51,3.51,0,0,0-.22.67c-.23,1.23.29,2,1.15,2Z"/><path class="cls-4" d="M335.81,56.2c-1.75,0-2.75-1.59-2.28-4a8.28,8.28,0,0,1,.4-1.41l9.44-24.53c1.14-2.94,3.86-5.46,6.11-5.46h24.94c-1.14,2.95-3.86,5.46-6.1,5.46H353.38c-1.17,0-2.48,1.23-3.08,2.76l-.52,1.35a3.33,3.33,0,0,0-.18.67c-.23,1.23.25,2,1.14,2h18.94c-1.14,2.94-3.82,5.45-6.11,5.45H348.63c-1.12,0-2.47,1.23-3,2.76-.51,1.29-2.65,6.44-2.85,7.48-.23,1.23.29,2,1.14,2h19c-1.14,2.94-3.86,5.45-6.11,5.45Z"/><path class="cls-4" d="M368.65,56.2c-1.75,0-2.75-1.59-2.28-4a7.69,7.69,0,0,1,.4-1.41l9.44-24.53c1.14-2.94,3.86-5.46,6.11-5.46h24.94l-11.55,30c-1.14,2.94-3.86,5.45-6.11,5.45h-4l6.81-17.72H381.48c-1.13,0-2.48,1.23-3,2.7l-5.8,15Zm28.52-30H386.22c-1.17,0-2.48,1.23-3.07,2.7l-.54,1.41a4.66,4.66,0,0,0-.17.67c-.23,1.23.25,2,1.15,2h9c1.12,0,2.47-1.23,3-2.7Z"/><path class="cls-4" d="M404.86,56.2c-3.5,0-5.5-3.18-4.57-8.09a16.57,16.57,0,0,1,.8-2.82l5.27-13.61c2.24-5.89,7.68-10.92,12.16-10.92h21c-1.14,2.95-3.81,5.46-6.1,5.46h-13c-2.24,0-5,2.51-6,5.46l-5.27,13.61a7.46,7.46,0,0,0-.4,1.41c-.47,2.45.53,4,2.28,4h5c2.29,0,5-2.52,6.1-5.46l2.64-6.81h-10c1.14-2.94,3.86-5.45,6.11-5.45h14L430,45.29c-2.28,5.89-7.68,10.91-12.21,10.91Z"/><path class="cls-4" d="M434.51,56.2c-1.75,0-2.75-1.59-2.28-4a8.28,8.28,0,0,1,.4-1.41l9.44-24.53c1.14-2.94,3.86-5.46,6.11-5.46h4L441.66,48.05a2.93,2.93,0,0,0-.21.67c-.24,1.23.29,2,1.18,2h18.94c-1.14,2.94-3.86,5.45-6.11,5.45Z"/><path class="cls-4" d="M464.39,56.2c-1.75,0-2.75-1.59-2.29-4a8.33,8.33,0,0,1,.41-1.41L472,26.22c1.14-2.94,3.86-5.46,6.1-5.46H503c-1.14,2.95-3.86,5.46-6.1,5.46H482c-1.17,0-2.48,1.23-3.09,2.76l-.52,1.35a3.29,3.29,0,0,0-.17.67c-.23,1.23.24,2,1.14,2h18.94c-1.15,2.94-3.82,5.45-6.11,5.45H477.21c-1.12,0-2.47,1.23-3,2.76-.52,1.29-2.66,6.44-2.86,7.48-.23,1.23.29,2,1.15,2h19c-1.14,2.94-3.86,5.45-6.1,5.45Z"/><path class="cls-5" d="M506.14,52.22a5.1,5.1,0,1,1-5-4.81A4.94,4.94,0,0,1,506.14,52.22Z"/><path class="cls-4" d="M500.21,50.38h.87a1.26,1.26,0,0,1,.74.16.54.54,0,0,1,.2.43.54.54,0,0,1-.14.34.49.49,0,0,1-.32.18,3.28,3.28,0,0,1-.53.07h-.84ZM500.15,55l0-2.36h.18a.94.94,0,0,1,.49.15,1.32,1.32,0,0,1,.36.45l1,1.79,2.29,0-1-1.69a2,2,0,0,0-.28-.36,1.33,1.33,0,0,0-.32-.32,2,2,0,0,0-.52-.21,2.68,2.68,0,0,0,.71-.23,1.67,1.67,0,0,0,.64-.56,1.63,1.63,0,0,0-.05-1.78,1.52,1.52,0,0,0-.79-.54,5.52,5.52,0,0,0-1.43-.16l-3.35,0L498.12,55Z"/></g></g></svg>