<svg xmlns="http://www.w3.org/2000/svg" viewBox="0 0 175.49 107.39"><defs><style>.cls-1,.cls-7{fill:#727171;}.cls-1,.cls-2,.cls-3,.cls-4,.cls-5,.cls-6{stroke:#fff;stroke-linejoin:round;stroke-width:3.14px;}.cls-2,.cls-8{fill:#e72418;}.cls-3,.cls-9{fill:#00a73c;}.cls-10,.cls-4{fill:#f8b62d;}.cls-11,.cls-5{fill:#00afec;}.cls-12,.cls-6{fill:#b5b5b6;}</style></defs><g id="レイヤー_2" data-name="レイヤー 2"><g id="レイヤー_1-2" data-name="レイヤー 1"><path class="cls-1" d="M102.26,1.88l16.89-.31a2.1,2.1,0,0,1,2,1.36L149.71,77a2.13,2.13,0,0,1-1.22,2.75,2.36,2.36,0,0,1-.73.14,2.15,2.15,0,0,1-2-1.36l-28-72.72-15.4.28a2.13,2.13,0,1,1-.08-4.25Z"/><path class="cls-1" d="M141.73,45.5,166,45.05a2.14,2.14,0,0,0,2.09-2L170,11.44a2.12,2.12,0,0,0-2.16-2.25l-38.27.7a2.13,2.13,0,0,0-1.94,2.9l12.13,31.35A2.11,2.11,0,0,0,141.73,45.5Zm1.41-4.28L132.65,14.09l32.92-.6L164,40.83Z"/><path class="cls-2" d="M74.6,86a2.12,2.12,0,0,0-2.73,1.25,22,22,0,0,1-41,.76A2.13,2.13,0,0,0,27,89.58a26.24,26.24,0,0,0,48.88-.9A2.12,2.12,0,0,0,74.6,86Z"/><path class="cls-2" d="M27.88,73.23A2.14,2.14,0,0,0,30.62,72a22,22,0,0,1,39.52-3.63l-5.21.1A2.13,2.13,0,1,0,65,72.69l8.58-.16a2.12,2.12,0,0,0,1.92-2.94,26.24,26.24,0,0,0-48.88.91A2.13,2.13,0,0,0,27.88,73.23Z"/><path class="cls-3" d="M88.31,90.11a13.54,13.54,0,0,1-.42-22.41,2.13,2.13,0,1,0-2.46-3.47A17.8,17.8,0,0,0,86,93.67a2.13,2.13,0,0,0,2.33-3.56Z"/><path class="cls-3" d="M112.89,56.87l9.64-.18a2.13,2.13,0,0,0-.08-4.25l-9.64.18a2.13,2.13,0,1,0,.08,4.25Z"/><path class="cls-3" d="M122.55,57.77l-9.64.18a2.12,2.12,0,0,0-.45,4.19L108,65.86A17.72,17.72,0,0,0,95.39,61H94.9a2.13,2.13,0,1,0,.2,4.25h.37a13.43,13.43,0,0,1,9.18,3.38l-10.3,8.53a2.13,2.13,0,0,0,1.4,3.76,2.09,2.09,0,0,0,1.31-.49l10.31-8.53A13.54,13.54,0,0,1,96,92.31H95.6a2.13,2.13,0,1,0,0,4.25H96a17.8,17.8,0,0,0,14.64-27.43l8.51-7,3.44-.07a2.13,2.13,0,0,0-.08-4.25Z"/><path class="cls-4" d="M147.2,51.57a25.31,25.31,0,0,0-10.72,2.61l3.88-15.93a2.14,2.14,0,0,0-2.05-2.82l-20.13.37a2.13,2.13,0,1,0,.08,4.26l17.09-.32L130.46,58.6a2.13,2.13,0,0,0,3.37,2.33,21.69,21.69,0,0,1,13.45-5.11,22,22,0,1,1-13.2,39.26A.4.4,0,0,0,134,95a12.94,12.94,0,0,1,8-23,8.15,8.15,0,1,0,11-.36l-.09-.08-.09-.07-.19-.15a17.19,17.19,0,0,0-21.48,26.84l.15.13A26.24,26.24,0,1,0,147.2,51.57Zm.42,22.33a3.87,3.87,0,0,1,2.33.73l.23.18a3.89,3.89,0,1,1-2.56-.91Z"/><path class="cls-5" d="M147.65,75.68l-29.07.53a2.13,2.13,0,1,0,.08,4.26l29.07-.54a2.13,2.13,0,0,0-.08-4.25Z"/><path class="cls-6" d="M13.09,18.4a11.82,11.82,0,0,1,7,2.17,2.59,2.59,0,0,1,.37,1v.13c0,1-.54,1.5-1.66,1.64h-.21L16.39,22.3a11.32,11.32,0,0,0-3.24-.58,8.68,8.68,0,0,0-6.87,3.81A9.33,9.33,0,0,0,4.9,30.35a8.42,8.42,0,0,0,8.45,8.32h.17a9.75,9.75,0,0,0,5.13-1.77h.55c1,.2,1.51.71,1.53,1.52v.17c0,1.07-1.41,2.07-4.28,3a9.52,9.52,0,0,1-2.74.43h-.3q-5.84.11-9.86-5.22a12.41,12.41,0,0,1-2-6.37Q1.45,24.28,7,20.33A11.72,11.72,0,0,1,13.09,18.4Z"/><path class="cls-6" d="M30.57,24.67A8.61,8.61,0,0,1,39.24,33q.09,4.77-4.38,7.59a8.5,8.5,0,0,1-3.79,1.06h-.48a8.64,8.64,0,0,1-6.45-3.1,9.13,9.13,0,0,1-1.91-5.25,8.62,8.62,0,0,1,8.34-8.66Zm-5,8.43v.28a5,5,0,0,0,2.94,4.52,4.81,4.81,0,0,0,2.19.48H31c2,0,3.56-1.12,4.6-3.25a5.13,5.13,0,0,0,.33-1.93V32.9a5,5,0,0,0-2.33-4.09,5.26,5.26,0,0,0-3-.84c-2.22,0-3.82,1.23-4.82,3.59A5.11,5.11,0,0,0,25.53,33.1Z"/><path class="cls-6" d="M49.24,24.28a8.45,8.45,0,0,1,6.63,3,8.54,8.54,0,0,1,2,5l0,2L58,41.35c0,1.48-1,3.07-3.16,4.77a9.26,9.26,0,0,1-5.16,1.72,9.15,9.15,0,0,1-7.74-4,3.68,3.68,0,0,1-.63-1.42v-.18c0-.76.47-1.26,1.45-1.5H43c.75,0,1.35.54,1.79,1.67a5.88,5.88,0,0,0,4.85,2.32,5.56,5.56,0,0,0,5.12-3.18l.08-.63,0-1.53a7.21,7.21,0,0,1-5.06,1.89h-.47a8.64,8.64,0,0,1-6.45-3.1,9,9,0,0,1-1.91-5.25,8.42,8.42,0,0,1,3.53-7A8.59,8.59,0,0,1,49.24,24.28ZM44.13,32.7V33q.07,3.29,3.55,4.83a5.67,5.67,0,0,0,1.65.24h.35c2.13,0,3.72-1.21,4.77-3.53a6.62,6.62,0,0,0,.22-1.59v-.36q-.06-3.27-3.58-4.83a8.09,8.09,0,0,0-1.68-.22h-.22Q46,27.57,44.41,31A5.34,5.34,0,0,0,44.13,32.7Z"/><path class="cls-6" d="M68.39,23.86c3.28-.06,5.87,1.45,7.74,4.54a8.62,8.62,0,0,1,1,4v.35c-.16,1.08-.69,1.63-1.55,1.64l-11.82.22a4.73,4.73,0,0,0,2.62,2.65,6.7,6.7,0,0,0,2.34.43,7.12,7.12,0,0,0,3-.94h.51c1,.17,1.49.68,1.51,1.52v.17q0,1.86-4.64,2.57H68.7a8.46,8.46,0,0,1-7.46-4.18A8.73,8.73,0,0,1,60,32.57C60,29.43,61.42,26.92,64.33,25A9.27,9.27,0,0,1,68.39,23.86Zm-5,7.48,10.33-.19a5.78,5.78,0,0,0-1.35-2.33,5.17,5.17,0,0,0-3.5-1.61l-.65,0a5,5,0,0,0-4.21,2.63A5.1,5.1,0,0,0,63.44,31.34Z"/><path class="cls-6" d="M80.89,17.29h.28c1,.19,1.51.66,1.53,1.39l.35,18.77h.77c.77,0,1.27.49,1.51,1.53v.13c-.16,1-.68,1.59-1.57,1.61l-2.31,0c-.87,0-1.42-.51-1.64-1.58l-.37-20.11C79.54,17.89,80,17.3,80.89,17.29Z"/><path class="cls-6" d="M100.81,38.64a7.73,7.73,0,0,1-4.87,1.83h-.41c-2.61.05-4.89-1.19-6.86-3.69a9.28,9.28,0,0,1-1.41-5l-.12-6.48c.1-1.2.67-1.81,1.69-1.83,1,.25,1.54.73,1.55,1.45l.12,6.33c0,2.53.78,4.19,2.19,5a4.8,4.8,0,0,0,3,1q3.15,0,4.69-3.33a7.14,7.14,0,0,0,.3-2.14l-.13-6.9c.19-1.08.75-1.63,1.67-1.65,1,.22,1.56.74,1.58,1.57l.26,14.07c0,.79-.5,1.29-1.52,1.51h-.16c-1-.17-1.56-.69-1.57-1.56Z"/><path class="cls-6" d="M72.48,23.62a1.33,1.33,0,0,1-.72-.18l-3.61-2-3.51,2.12a1.43,1.43,0,1,1-1.49-2.45l4.22-2.55a1.43,1.43,0,0,1,1.44,0l4.33,2.39a1.44,1.44,0,0,1,.57,1.95A1.46,1.46,0,0,1,72.48,23.62Z"/><path class="cls-7" d="M102.26,1.88l16.89-.31a2.1,2.1,0,0,1,2,1.36L149.71,77a2.13,2.13,0,0,1-1.22,2.75,2.36,2.36,0,0,1-.73.14,2.15,2.15,0,0,1-2-1.36l-28-72.72-15.4.28a2.13,2.13,0,1,1-.08-4.25Z"/><path class="cls-7" d="M141.73,45.5,166,45.05a2.14,2.14,0,0,0,2.09-2L170,11.44a2.12,2.12,0,0,0-2.16-2.25l-38.27.7a2.13,2.13,0,0,0-1.94,2.9l12.13,31.35A2.11,2.11,0,0,0,141.73,45.5Zm1.41-4.28L132.65,14.09l32.92-.6L164,40.83Z"/><path class="cls-8" d="M74.6,86a2.12,2.12,0,0,0-2.73,1.25,22,22,0,0,1-41,.76A2.13,2.13,0,0,0,27,89.58a26.24,26.24,0,0,0,48.88-.9A2.12,2.12,0,0,0,74.6,86Z"/><path class="cls-8" d="M27.88,73.23A2.14,2.14,0,0,0,30.62,72a22,22,0,0,1,39.52-3.63l-5.21.1A2.13,2.13,0,1,0,65,72.69l8.58-.16a2.12,2.12,0,0,0,1.92-2.94,26.24,26.24,0,0,0-48.88.91A2.13,2.13,0,0,0,27.88,73.23Z"/><path class="cls-9" d="M88.31,90.11a13.54,13.54,0,0,1-.42-22.41,2.13,2.13,0,1,0-2.46-3.47A17.8,17.8,0,0,0,86,93.67a2.13,2.13,0,0,0,2.33-3.56Z"/><path class="cls-9" d="M112.89,56.87l9.64-.18a2.13,2.13,0,0,0-.08-4.25l-9.64.18a2.13,2.13,0,1,0,.08,4.25Z"/><path class="cls-9" d="M122.55,57.77l-9.64.18a2.12,2.12,0,0,0-.45,4.19L108,65.86A17.72,17.72,0,0,0,95.39,61H94.9a2.13,2.13,0,1,0,.2,4.25h.37a13.43,13.43,0,0,1,9.18,3.38l-10.3,8.53a2.13,2.13,0,0,0,1.4,3.76,2.09,2.09,0,0,0,1.31-.49l10.31-8.53A13.54,13.54,0,0,1,96,92.31H95.6a2.13,2.13,0,1,0,0,4.25H96a17.8,17.8,0,0,0,14.64-27.43l8.51-7,3.44-.07a2.13,2.13,0,0,0-.08-4.25Z"/><path class="cls-10" d="M147.2,51.57a25.31,25.31,0,0,0-10.72,2.61l3.88-15.93a2.14,2.14,0,0,0-2.05-2.82l-20.13.37a2.13,2.13,0,1,0,.08,4.26l17.09-.32L130.46,58.6a2.13,2.13,0,0,0,3.37,2.33,21.69,21.69,0,0,1,13.45-5.11,22,22,0,1,1-13.2,39.26A.4.4,0,0,0,134,95a12.94,12.94,0,0,1,8-23,8.15,8.15,0,1,0,11-.36l-.09-.08-.09-.07-.19-.15a17.19,17.19,0,0,0-21.48,26.84l.15.13A26.24,26.24,0,1,0,147.2,51.57Zm.42,22.33a3.87,3.87,0,0,1,2.33.73l.23.18a3.89,3.89,0,1,1-2.56-.91Z"/><path class="cls-11" d="M147.65,75.68l-29.07.53a2.13,2.13,0,1,0,.08,4.26l29.07-.54a2.13,2.13,0,0,0-.08-4.25Z"/><path class="cls-12" d="M13.09,18.4a11.82,11.82,0,0,1,7,2.17,2.59,2.59,0,0,1,.37,1v.13c0,1-.54,1.5-1.66,1.64h-.21L16.39,22.3a11.32,11.32,0,0,0-3.24-.58,8.68,8.68,0,0,0-6.87,3.81A9.33,9.33,0,0,0,4.9,30.35a8.42,8.42,0,0,0,8.45,8.32h.17a9.75,9.75,0,0,0,5.13-1.77h.55c1,.2,1.51.71,1.53,1.52v.17c0,1.07-1.41,2.07-4.28,3a9.52,9.52,0,0,1-2.74.43h-.3q-5.84.11-9.86-5.22a12.41,12.41,0,0,1-2-6.37Q1.45,24.28,7,20.33A11.72,11.72,0,0,1,13.09,18.4Z"/><path class="cls-12" d="M30.57,24.67A8.61,8.61,0,0,1,39.24,33q.09,4.77-4.38,7.59a8.5,8.5,0,0,1-3.79,1.06h-.48a8.64,8.64,0,0,1-6.45-3.1,9.13,9.13,0,0,1-1.91-5.25,8.62,8.62,0,0,1,8.34-8.66Zm-5,8.43v.28a5,5,0,0,0,2.94,4.52,4.81,4.81,0,0,0,2.19.48H31c2,0,3.56-1.12,4.6-3.25a5.13,5.13,0,0,0,.33-1.93V32.9a5,5,0,0,0-2.33-4.09,5.26,5.26,0,0,0-3-.84c-2.22,0-3.82,1.23-4.82,3.59A5.11,5.11,0,0,0,25.53,33.1Z"/><path class="cls-12" d="M49.24,24.28a8.45,8.45,0,0,1,6.63,3,8.54,8.54,0,0,1,2,5l0,2L58,41.35c0,1.48-1,3.07-3.16,4.77a9.26,9.26,0,0,1-5.16,1.72,9.15,9.15,0,0,1-7.74-4,3.68,3.68,0,0,1-.63-1.42v-.18c0-.76.47-1.26,1.45-1.5H43c.75,0,1.35.54,1.79,1.67a5.88,5.88,0,0,0,4.85,2.32,5.56,5.56,0,0,0,5.12-3.18l.08-.63,0-1.53a7.21,7.21,0,0,1-5.06,1.89h-.47a8.64,8.64,0,0,1-6.45-3.1,9,9,0,0,1-1.91-5.25,8.42,8.42,0,0,1,3.53-7A8.59,8.59,0,0,1,49.24,24.28ZM44.13,32.7V33q.07,3.29,3.55,4.83a5.67,5.67,0,0,0,1.65.24h.35c2.13,0,3.72-1.21,4.77-3.53a6.62,6.62,0,0,0,.22-1.59v-.36q-.06-3.27-3.58-4.83a8.09,8.09,0,0,0-1.68-.22h-.22Q46,27.57,44.41,31A5.34,5.34,0,0,0,44.13,32.7Z"/><path class="cls-12" d="M68.39,23.86c3.28-.06,5.87,1.45,7.74,4.54a8.62,8.62,0,0,1,1,4v.35c-.16,1.08-.69,1.63-1.55,1.64l-11.82.22a4.73,4.73,0,0,0,2.62,2.65,6.7,6.7,0,0,0,2.34.43,7.12,7.12,0,0,0,3-.94h.51c1,.17,1.49.68,1.51,1.52v.17q0,1.86-4.64,2.57H68.7a8.46,8.46,0,0,1-7.46-4.18A8.73,8.73,0,0,1,60,32.57C60,29.43,61.42,26.92,64.33,25A9.27,9.27,0,0,1,68.39,23.86Zm-5,7.48,10.33-.19a5.78,5.78,0,0,0-1.35-2.33,5.17,5.17,0,0,0-3.5-1.61l-.65,0a5,5,0,0,0-4.21,2.63A5.1,5.1,0,0,0,63.44,31.34Z"/><path class="cls-12" d="M80.89,17.29h.28c1,.19,1.51.66,1.53,1.39l.35,18.77h.77c.77,0,1.27.49,1.51,1.53v.13c-.16,1-.68,1.59-1.57,1.61l-2.31,0c-.87,0-1.42-.51-1.64-1.58l-.37-20.11C79.54,17.89,80,17.3,80.89,17.29Z"/><path class="cls-12" d="M100.81,38.64a7.73,7.73,0,0,1-4.87,1.83h-.41c-2.61.05-4.89-1.19-6.86-3.69a9.28,9.28,0,0,1-1.41-5l-.12-6.48c.1-1.2.67-1.81,1.69-1.83,1,.25,1.54.73,1.55,1.45l.12,6.33c0,2.53.78,4.19,2.19,5a4.8,4.8,0,0,0,3,1q3.15,0,4.69-3.33a7.14,7.14,0,0,0,.3-2.14l-.13-6.9c.19-1.08.75-1.63,1.67-1.65,1,.22,1.56.74,1.58,1.57l.26,14.07c0,.79-.5,1.29-1.52,1.51h-.16c-1-.17-1.56-.69-1.57-1.56Z"/><path class="cls-12" d="M72.48,23.62a1.33,1.33,0,0,1-.72-.18l-3.61-2-3.51,2.12a1.43,1.43,0,1,1-1.49-2.45l4.22-2.55a1.43,1.43,0,0,1,1.44,0l4.33,2.39a1.44,1.44,0,0,1,.57,1.95A1.46,1.46,0,0,1,72.48,23.62Z"/></g></g></svg>