<svg xmlns="http://www.w3.org/2000/svg" width="23.19" height="24" viewBox="0 0 23.19 24">
  <defs>
    <style>
      .cls-1 {
        fill: #fff;
        fill-rule: evenodd;
      }
    </style>
  </defs>
  <path id="icn_search.svg" class="cls-1" d="M8143.62,1721.8a3.572,3.572,0,0,0-3.5,3.63,0.485,0.485,0,1,0,.97,0,2.579,2.579,0,0,1,2.53-2.62A0.505,0.505,0,0,0,8143.62,1721.8Zm8.57,9.33a9.354,9.354,0,0,0,1.39-4.93,9.062,9.062,0,0,0-8.89-9.2,8.643,8.643,0,0,0-4.77,1.44,9.113,9.113,0,0,0-2.73,2.83,9.354,9.354,0,0,0-1.39,4.93,9.062,9.062,0,0,0,8.89,9.2,8.643,8.643,0,0,0,4.77-1.44A9.113,9.113,0,0,0,8152.19,1731.13Zm-4.62.88a6.086,6.086,0,0,1-2.88.72,6.43,6.43,0,0,1-6.31-6.53,6.605,6.605,0,0,1,.7-2.98,6.388,6.388,0,0,1,2.73-2.83,6.086,6.086,0,0,1,2.88-.72,6.43,6.43,0,0,1,6.31,6.53,6.605,6.605,0,0,1-.7,2.98A6.44,6.44,0,0,1,8147.57,1732.01Zm10.86,5.57-5.13-5.29a10.811,10.811,0,0,1-2.73,2.83l5.13,5.29a1.9,1.9,0,0,0,1.37.59,1.882,1.882,0,0,0,1.36-.59A2.041,2.041,0,0,0,8158.43,1737.58Z" transform="translate(-8135.81 -1717)"/>
</svg>
