<svg xmlns="http://www.w3.org/2000/svg" viewBox="0 0 391.5 70"><defs><style>.cls-1{fill:#fff;}</style></defs><g id="レイヤー_2" data-name="レイヤー 2"><g id="レイヤー_1-2" data-name="レイヤー 1"><path class="cls-1" d="M39.77,0a29.15,29.15,0,0,0-15.5,4.57c-6.88,4.27-9.82,9.44-11.08,13L0,55.1H12.44L23.89,22.24c1.29-3.65,4-6.76,8-9.27A23,23,0,0,1,44.17,9.38H98.79L94.61,21.21H41.69a9.43,9.43,0,0,0-4.53,1.14,3.42,3.42,0,0,0-1.71,1.5l-2.75,7.8H90.86S84.62,43.42,77.29,43.42H28.55c-.34,1-3.46,9.82-4.12,11.67,4.82,0,25.08-.05,48.31-.05,11.89,0,23.87-9.9,27.53-20,3.56-9.82,13-35.07,13-35.07Z"/><path class="cls-1" d="M210.43,55.1H180.8c-3.2,0-5.67-.92-7.32-2.73a6.54,6.54,0,0,1-1.26-7.16l7.2-20.42a13,13,0,0,1,5.74-6.61,16.61,16.61,0,0,1,8.86-2.6h29.63c3.15,0,5.59.94,7.27,2.78a6.57,6.57,0,0,1,1.27,7.1L225,45.89a13,13,0,0,1-5.81,6.66A16.27,16.27,0,0,1,210.43,55.1ZM192.14,22.92a8.05,8.05,0,0,0-3.85,1,3.21,3.21,0,0,0-1.69,1.59l-7.2,20.41a.87.87,0,0,0,.35,1.09,4.39,4.39,0,0,0,2.91.83h29.63a7.81,7.81,0,0,0,3.76-.95,3.38,3.38,0,0,0,1.76-1.64L225,24.8c.09-.26.14-.58-.4-1a4.34,4.34,0,0,0-2.88-.84Z"/><path class="cls-1" d="M231.89,55.1h-7.42l10.69-30.31a13,13,0,0,1,5.74-6.61,16.62,16.62,0,0,1,8.87-2.6h30.1c3.14,0,5.59.93,7.26,2.77a6.53,6.53,0,0,1,1.32,7.11c-.77,2.18-1.55,4.16-2.33,5.87a7.63,7.63,0,0,1-.82,1.34,10.64,10.64,0,0,1-1.1,1.27c-.42.39-.82.74-1.23,1.06-.22.19-.48.39-.74.59a12.45,12.45,0,0,1,.68,1.37l0,.08a8.44,8.44,0,0,1,.33,1.29,7.72,7.72,0,0,1,.09,1.4v.16L278,55.1h-7.37l5-14.22c.13-.36.11-.67-.38-1.07a4.42,4.42,0,0,0-2.95-.89H237.6Zm8.26-23.42h34.09a8.12,8.12,0,0,0,3.81-.92,3.35,3.35,0,0,0,1.75-1.67l1.52-4.29c.09-.26.14-.58-.41-1a4.31,4.31,0,0,0-2.87-.84H247.85a8.5,8.5,0,0,0-3.45.74,3.19,3.19,0,0,0-2.06,1.81Z"/><path class="cls-1" d="M378.37,55.1H339.6c-3.2,0-5.66-.92-7.32-2.73A6.58,6.58,0,0,1,331,45.21c.42-1.18.8-2.22,1.18-3.15s.75-1.84,1.09-2.65a9.59,9.59,0,0,1,.84-1.4,14.22,14.22,0,0,1,1.05-1.25l.05-.06c.48-.44,1.13-1,2-1.58a4.49,4.49,0,0,1-.24-.42,7.45,7.45,0,0,1-.48-1.09,5.85,5.85,0,0,1-.05-3.14c.24-1,.56-2,1-3.27l.39-1.12c.14-.36.25-.74.36-1.13l0-.07A13.07,13.07,0,0,1,344,18.23a16.64,16.64,0,0,1,8.86-2.6H391.5l-2.43,7.29H351a8.06,8.06,0,0,0-3.86,1,3.25,3.25,0,0,0-1.69,1.59l-1.53,4.32a.88.88,0,0,0,.36,1.09,4.45,4.45,0,0,0,2.91.82h22.62L367.18,39h-21.9a8.18,8.18,0,0,0-3.86,1,3.57,3.57,0,0,0-1.71,1.64l-1.51,4.28a.88.88,0,0,0,.36,1.1,4.34,4.34,0,0,0,2.9.83H380.8Z"/><path class="cls-1" d="M178.58,22.58H143.94a7.81,7.81,0,0,0-3.79,1,3.2,3.2,0,0,0-1.71,1.6l-2.47,7h25.86l-2.58,7.3H133.4L128,54.75h-7.46l10.68-30.3A13.07,13.07,0,0,1,137,17.83a16.7,16.7,0,0,1,8.87-2.59h41.58C180.55,18.14,178.58,22.58,178.58,22.58Z"/><path class="cls-1" d="M327.22,55.1H292.13c-3.2,0-5.66-.92-7.31-2.73a6.57,6.57,0,0,1-1.27-7.16l7.2-20.42a13.09,13.09,0,0,1,5.75-6.61,16.56,16.56,0,0,1,8.86-2.6h39l-3,1.86a15.23,15.23,0,0,0-4.92,5l-.29.5H303.48a8,8,0,0,0-3.86,1,3.25,3.25,0,0,0-1.69,1.59l-7.2,20.41a.88.88,0,0,0,.36,1.09,4.39,4.39,0,0,0,2.91.83h33.8l.08.91a7.49,7.49,0,0,0,1.95,4.38l.39.44,1.55,1.57Z"/><path class="cls-1" d="M163.87,64.54l-1.48,3.79a19.35,19.35,0,0,0,3.49.34,25,25,0,0,0,5-.6l-.53,1.36a26.16,26.16,0,0,1-5,.54,21.47,21.47,0,0,1-4.71-.54l2.32-6a24.79,24.79,0,0,1,5-.55,20.6,20.6,0,0,1,4.7.54l-.52,1.36a19.91,19.91,0,0,0-4.73-.6A21.79,21.79,0,0,0,163.87,64.54Z"/><path class="cls-1" d="M182.71,69.42a25.34,25.34,0,0,1-5,.55,21.4,21.4,0,0,1-4.71-.54l2.31-6a25,25,0,0,1,5.05-.55,20.13,20.13,0,0,1,4.7.55Zm-.93-1.07,1.47-3.8a18.2,18.2,0,0,0-3.47-.34,21.79,21.79,0,0,0-3.55.33l-1.48,3.79a19.26,19.26,0,0,0,3.49.34A22.63,22.63,0,0,0,181.78,68.35Z"/><path class="cls-1" d="M192.28,62.3h1.36l-.25.63a20.79,20.79,0,0,1,4,.53L194.86,70H193.5l2.11-5.45a19.74,19.74,0,0,0-2.72-.32l-2,5.12h-1.37l2-5.12a22.64,22.64,0,0,0-2.95.31L186.47,70h-1.36l2.53-6.54a25,25,0,0,1,4.39-.53Z"/><path class="cls-1" d="M199.48,64.7l-1,.12.45-1.14,1-.22a23.48,23.48,0,0,1,5.06-.55,20.71,20.71,0,0,1,4.69.54l-.53,1.36h0l-.76,2a53.37,53.37,0,0,1-5.64.31h-2.84L198.78,70h-1.36Zm.93,1h2.84q2.46,0,4.23-.12l.41-1a18.1,18.1,0,0,0-3.46-.34,21.79,21.79,0,0,0-3.55.33Z"/><path class="cls-1" d="M220.78,69.42a25.44,25.44,0,0,1-5,.55,21.47,21.47,0,0,1-4.71-.54l2.31-6a25,25,0,0,1,5.06-.55,20,20,0,0,1,4.69.55Zm-.93-1.07,1.46-3.8a18.13,18.13,0,0,0-3.47-.34,21.58,21.58,0,0,0-3.54.33l-1.49,3.79a19.35,19.35,0,0,0,3.49.34A22.85,22.85,0,0,0,219.85,68.35Z"/><path class="cls-1" d="M225.7,63.46c.5-.1,1-.19,1.47-.26a0,0,0,0,1,0,0,.85.85,0,0,1-.07.16.46.46,0,0,0-.06.18s0,0,0,0,.2-.27.32-.42a25.66,25.66,0,0,1,3.37-.26,20.11,20.11,0,0,1,4.69.55L232.93,70h-1.36l2.1-5.45a18.13,18.13,0,0,0-3.47-.34,21.89,21.89,0,0,0-3.55.33L224.54,70h-1.36Z"/><path class="cls-1" d="M130,64.54,127.87,70h-1.36L129,63.46c.5-.1,1-.19,1.47-.26,0,0,0,0,0,0Z"/><path class="cls-1" d="M126.49,63.45a20.73,20.73,0,0,0-4.7-.54,23.45,23.45,0,0,0-5.05.55l-1,.22-.45,1.14,1-.12-1.35,3.48-.19,0-1-.12.45,1.14.34.08s1.25.26,1.25.26a24.49,24.49,0,0,0,4.5.43,21,21,0,0,0,3.87-.37Zm-3.27,4.85h-.08a18.1,18.1,0,0,1-3.46.34,21.7,21.7,0,0,1-3.47-.31l.5-1.27h2.84c1.35,0,2.75-.06,4.21-.18Zm1-2.7c-1.19.08-2.59.12-4.22.12h-2.84l.47-1.18a21.79,21.79,0,0,1,3.55-.33,18,18,0,0,1,3.44.34Z"/><path class="cls-1" d="M239.53,64h0l.33-.81a46.66,46.66,0,0,1,5.31-.25,40.82,40.82,0,0,1,4.93.25l-.53,1.38a37.45,37.45,0,0,0-5.35-.37,29.16,29.16,0,0,0-3.49.19l-.54,1.36h6.7l-.51,1.35H239.7l-.55,1.39a29.05,29.05,0,0,0,3.39.18,43.14,43.14,0,0,0,5.53-.36l-.53,1.37a35.4,35.4,0,0,1-5.1.32,33.44,33.44,0,0,1-5.09-.32l.37-1h0Z"/><path class="cls-1" d="M144,64h0l.34-.81a46.54,46.54,0,0,1,5.31-.25,40.94,40.94,0,0,1,4.93.25l-.53,1.38a37.55,37.55,0,0,0-5.35-.37,29.16,29.16,0,0,0-3.49.19l-.54,1.36h6.69l-.5,1.35h-6.69l-.55,1.39a28.93,28.93,0,0,0,3.39.18,42.87,42.87,0,0,0,5.52-.36l-.52,1.37A35.4,35.4,0,0,1,147,70a33.67,33.67,0,0,1-5.1-.32l.38-1h0Z"/><path class="cls-1" d="M253,63.46c.5-.1,1-.19,1.47-.26,0,0,0,0,0,0l-.06.16a.53.53,0,0,0-.07.18s0,0,0,0,.19-.27.31-.42a25.91,25.91,0,0,1,3.37-.26,20.19,20.19,0,0,1,4.7.55L260.26,70H258.9L261,64.55a18.2,18.2,0,0,0-3.47-.34,21.79,21.79,0,0,0-3.55.33L251.87,70h-1.36Z"/><path class="cls-1" d="M264.39,63.43a25.3,25.3,0,0,1,5-.54,20.75,20.75,0,0,1,4.71.54l-.52,1.35a21.15,21.15,0,0,0-4-.58L267.4,70h-1.35l2.24-5.77a27.55,27.55,0,0,0-4.43.58Z"/><path class="cls-1" d="M284.45,69.44a25.32,25.32,0,0,1-5,.54,20.88,20.88,0,0,1-4.71-.54l.53-1.36a19.4,19.4,0,0,0,4.73.62,21.79,21.79,0,0,0,3.55-.34L284,67.1h-8.39L277,63.46a25,25,0,0,1,5.05-.55,20.67,20.67,0,0,1,4.7.54l-.53,1.36a19.85,19.85,0,0,0-4.73-.6,21.89,21.89,0,0,0-3.55.33l-.47,1.21h8.39Z"/><path class="cls-1" d="M296.71,64h0l.32-.81a46.54,46.54,0,0,1,5.31-.25,40.82,40.82,0,0,1,4.93.25l-.53,1.38a37.55,37.55,0,0,0-5.35-.37,29.28,29.28,0,0,0-3.49.19l-.53,1.36h6.69l-.51,1.35h-6.69L295.75,70h-1.36Z"/><path class="cls-1" d="M318.09,69.42a25.52,25.52,0,0,1-5,.55,21.33,21.33,0,0,1-4.71-.54l2.31-6a25,25,0,0,1,5.05-.55,20.13,20.13,0,0,1,4.7.55Zm-.94-1.07,1.47-3.8a18.13,18.13,0,0,0-3.47-.34,21.58,21.58,0,0,0-3.54.33l-1.49,3.79a19.18,19.18,0,0,0,3.49.34A22.63,22.63,0,0,0,317.15,68.35Z"/><path class="cls-1" d="M330,66.67a2.39,2.39,0,0,1,1.28.56l-1,2.74h-1.35l.83-2.12a8,8,0,0,0-3.55-.75l-3.19,0L321.84,70h-1.35l2-5.22-.95.16.47-1.23,1-.22a22.27,22.27,0,0,1,5.05-.55,20.13,20.13,0,0,1,4.7.55l-.53,1.35h0l-.61,1.56Zm-6.51-1h3.85a27,27,0,0,0,3.28-.26l.35-.91a18.18,18.18,0,0,0-3.46-.34,21.9,21.9,0,0,0-3.56.33Z"/><path class="cls-1" d="M345.35,64.42h1.34l-.49,1.29c.85,0,1.78-.16,2.79-.32l1-2.48h1.36l-1.38,3.56a28.59,28.59,0,0,1-4.21.52l-1.16,3H343.2l1.15-3a21,21,0,0,1-4.17-.54l1.39-3.56h1.35l-1,2.48a18.25,18.25,0,0,0,2.9.32Z"/><path class="cls-1" d="M361.55,69.42a25.44,25.44,0,0,1-5,.55,21.47,21.47,0,0,1-4.71-.54l2.32-6a24.81,24.81,0,0,1,5.05-.55,20,20,0,0,1,4.69.55Zm-.93-1.07,1.46-3.8a18.13,18.13,0,0,0-3.47-.34,21.58,21.58,0,0,0-3.54.33l-1.49,3.79a19.35,19.35,0,0,0,3.49.34A22.85,22.85,0,0,0,360.62,68.35Z"/><path class="cls-1" d="M373.91,69.45a25.52,25.52,0,0,1-5,.55,20.91,20.91,0,0,1-4.72-.55l2.54-6.54h1.36l-2.12,5.45a19.35,19.35,0,0,0,3.49.34,21.58,21.58,0,0,0,3.54-.33l2.12-5.46h1.36Z"/><path class="cls-1" d="M142.57,62.77c-.22,0-.46.06-.7.1h0c-.69.11-1.37.26-2,.43l-.24.06h0a24.14,24.14,0,0,0-2.53.83,26.51,26.51,0,0,0-2.93,1.37c.61-1.4,1.41-3.25,1.42-3.26s0,0,0,0l-1.48.24-1.73,4-.81-.28L131,67.44l.84.25-1,2.31h1.36s.35-.82.82-1.89c.25.09.5.18.74.29L135,69c.54.28,1.11.63,1.72,1h2a26.33,26.33,0,0,0-4.12-2.55l-.75-.32a27,27,0,0,1,2.66-1.36l1.32-.51a22.79,22.79,0,0,1,4.12-1h0Z"/></g></g></svg>