<svg xmlns="http://www.w3.org/2000/svg" viewBox="0 0 397.55 167.92"><defs><style>.cls-1{fill:#ffdc00;}.cls-2{fill:#1d3f37;}.cls-3{fill:#4D8E41;}.cls-4{fill:#db4049;}.cls-5{fill:#e60024;}</style></defs><g id="レイヤー_2" data-name="レイヤー 2"><g id="レイヤー_1-2" data-name="レイヤー 1"><circle class="cls-1" cx="82.73" cy="62.49" r="30.81" transform="matrix(0.97, -0.26, 0.26, 0.97, -13.27, 23.33)"/><path class="cls-2" d="M145.45,7.31l3.28-.2a2.43,2.43,0,0,0,.44,1.17,1.87,1.87,0,0,0,1.53.64,1.76,1.76,0,0,0,1.14-.33.93.93,0,0,0,0-1.51,4.74,4.74,0,0,0-1.77-.61,7.79,7.79,0,0,1-3.25-1.3,2.53,2.53,0,0,1-1-2,2.63,2.63,0,0,1,.5-1.55,3.25,3.25,0,0,1,1.5-1.15A7.28,7.28,0,0,1,150.62,0a5.81,5.81,0,0,1,3.27.76,3.24,3.24,0,0,1,1.34,2.42L152,3.36a1.66,1.66,0,0,0-.55-1A1.78,1.78,0,0,0,150.28,2a1.37,1.37,0,0,0-.91.25.72.72,0,0,0-.31.59.62.62,0,0,0,.25.46,3,3,0,0,0,1.16.39,14.71,14.71,0,0,1,3.25.94,3.43,3.43,0,0,1,1.43,1.18,2.87,2.87,0,0,1,.44,1.58A3.25,3.25,0,0,1,155,9.26a3.76,3.76,0,0,1-1.66,1.31,7,7,0,0,1-2.7.45c-1.9,0-3.22-.35-3.95-1A4,4,0,0,1,145.45,7.31Z"/><path class="cls-2" d="M165.85,9.08h-3.92l-.55,1.75h-3.53L162.06.18h3.77L170,10.83h-3.62Zm-.72-2.31L163.9,2.94l-1.22,3.83Z"/><path class="cls-2" d="M178.39,7V4.76h5.34V9.3A11.2,11.2,0,0,1,181,10.66a9.62,9.62,0,0,1-2.8.36,7.07,7.07,0,0,1-3.24-.65A4.49,4.49,0,0,1,173,8.44a6.07,6.07,0,0,1-.69-2.93,5.86,5.86,0,0,1,.76-3A4.74,4.74,0,0,1,175.31.52,7.42,7.42,0,0,1,178.37,0a9,9,0,0,1,2.77.32,3.57,3.57,0,0,1,1.53,1A4.37,4.37,0,0,1,183.58,3l-3.33.56a1.72,1.72,0,0,0-.7-.92,2.59,2.59,0,0,0-3.07.43,3.51,3.51,0,0,0-.67,2.38,3.58,3.58,0,0,0,.68,2.47,2.43,2.43,0,0,0,1.9.74,3.68,3.68,0,0,0,1.11-.16A5.48,5.48,0,0,0,180.7,8V7Z"/><path class="cls-2" d="M187.56.18H191V10.83h-3.47Z"/><path class="cls-2" d="M194.55,7.31l3.28-.2a2.43,2.43,0,0,0,.44,1.17,1.87,1.87,0,0,0,1.53.64,1.76,1.76,0,0,0,1.14-.33.93.93,0,0,0,0-1.51,4.74,4.74,0,0,0-1.78-.61,7.8,7.8,0,0,1-3.24-1.3,2.53,2.53,0,0,1-1-2,2.63,2.63,0,0,1,.5-1.55A3.25,3.25,0,0,1,197,.42,7.28,7.28,0,0,1,199.72,0,5.81,5.81,0,0,1,203,.76a3.27,3.27,0,0,1,1.34,2.42l-3.26.18a1.66,1.66,0,0,0-.55-1A1.78,1.78,0,0,0,199.38,2a1.37,1.37,0,0,0-.91.25.72.72,0,0,0-.31.59.62.62,0,0,0,.25.46,3,3,0,0,0,1.16.39,14.89,14.89,0,0,1,3.25.94,3.43,3.43,0,0,1,1.43,1.18,3,3,0,0,1,.44,1.58,3.25,3.25,0,0,1-.59,1.89,3.76,3.76,0,0,1-1.66,1.31,7,7,0,0,1-2.7.45c-1.9,0-3.22-.35-4-1A4,4,0,0,1,194.55,7.31Z"/><path class="cls-2" d="M215,9.08H211l-.55,1.75H207L211.16.18h3.77l4.2,10.65h-3.62Zm-.72-2.31L213,2.94l-1.22,3.83Z"/><path class="cls-2" d="M221.88.18h3.46v4l3.62-4h4.6l-4.08,4,4.26,6.63h-4.26l-2.35-4.38-1.79,1.78v2.6h-3.46Z"/><path class="cls-2" d="M243.4,9.08h-3.92l-.55,1.75H235.4L239.61.18h3.77l4.2,10.65H244Zm-.71-2.31-1.24-3.83-1.22,3.83Z"/><path class="cls-2" d="M146.06,16.18h6.47a3.68,3.68,0,0,1,2.48.76,2.42,2.42,0,0,1,.87,1.89,2.33,2.33,0,0,1-.62,1.62,2.89,2.89,0,0,1-1.21.72,3.19,3.19,0,0,1,1.78.94,2.54,2.54,0,0,1,.57,1.69,2.78,2.78,0,0,1-.41,1.49,3,3,0,0,1-1.11,1.05,3.68,3.68,0,0,1-1.31.35,14.31,14.31,0,0,1-1.55.14h-6Zm3.48,4.18h1.51a1.75,1.75,0,0,0,1.12-.27.93.93,0,0,0,.32-.76.91.91,0,0,0-.32-.73,1.79,1.79,0,0,0-1.1-.26h-1.53Zm0,4.19h1.77a2,2,0,0,0,1.25-.31,1,1,0,0,0,.37-.81.94.94,0,0,0-.36-.76,2.13,2.13,0,0,0-1.27-.28h-1.76Z"/><path class="cls-2" d="M160,16.18h3.47V26.83H160Z"/><path class="cls-2" d="M175,22.47l3,.88a5.06,5.06,0,0,1-1,2,4,4,0,0,1-1.63,1.23A6.27,6.27,0,0,1,173,27a7.42,7.42,0,0,1-3-.51,4.72,4.72,0,0,1-2-1.77,5.82,5.82,0,0,1-.84-3.26,5.36,5.36,0,0,1,1.48-4.06A5.75,5.75,0,0,1,172.82,16a5.93,5.93,0,0,1,3.32.81,4.85,4.85,0,0,1,1.79,2.5l-3.05.65a2.49,2.49,0,0,0-.33-.71,2,2,0,0,0-.71-.58,2.24,2.24,0,0,0-2.74.69,3.67,3.67,0,0,0-.47,2.1,3.83,3.83,0,0,0,.56,2.43,2.31,2.31,0,0,0,3.09.13A3.3,3.3,0,0,0,175,22.47Z"/><path class="cls-2" d="M180.23,16.18h3.84l2.25,3.6,2.26-3.6h3.82l-4.35,6.19v4.46h-3.46V22.37Z"/><path class="cls-2" d="M202.6,22.47l3,.88a5.06,5.06,0,0,1-1,2A4,4,0,0,1,203,26.6a6.27,6.27,0,0,1-2.47.42,7.42,7.42,0,0,1-3-.51,4.72,4.72,0,0,1-2-1.77,5.82,5.82,0,0,1-.84-3.26,5.36,5.36,0,0,1,1.48-4.06A5.75,5.75,0,0,1,200.41,16a5.93,5.93,0,0,1,3.32.81,4.92,4.92,0,0,1,1.8,2.5l-3.06.65a2.49,2.49,0,0,0-.33-.71,2,2,0,0,0-.71-.58,2.24,2.24,0,0,0-2.74.69,3.67,3.67,0,0,0-.47,2.1,3.83,3.83,0,0,0,.56,2.43,2.31,2.31,0,0,0,3.09.13A3.21,3.21,0,0,0,202.6,22.47Z"/><path class="cls-2" d="M209,16.18h3.46v8h5.39v2.62H209Z"/><path class="cls-2" d="M221,16.18h9.26v2.28h-5.8v1.69h5.38v2.17h-5.38v2.1h6v2.41H221Z"/><path class="cls-2" d="M247.66,16.18h8.54v2.29h-5.07v1.86h4.34v2.15h-4.34v4.35h-3.47Z"/><path class="cls-2" d="M266.58,25.08h-3.92l-.55,1.75h-3.52l4.2-10.65h3.77l4.2,10.65h-3.62Zm-.71-2.31-1.24-3.83-1.22,3.83Z"/><path class="cls-2" d="M281,22.47l3,.88a5.35,5.35,0,0,1-1,2,4,4,0,0,1-1.63,1.23,6.32,6.32,0,0,1-2.48.42,7.46,7.46,0,0,1-3-.51,4.69,4.69,0,0,1-2-1.77,5.82,5.82,0,0,1-.84-3.26,5.39,5.39,0,0,1,1.47-4.06A5.79,5.79,0,0,1,278.75,16a5.88,5.88,0,0,1,3.32.81,4.81,4.81,0,0,1,1.8,2.5l-3.05.65a2.47,2.47,0,0,0-.34-.71,1.9,1.9,0,0,0-.71-.58,2.24,2.24,0,0,0-2.74.69,3.75,3.75,0,0,0-.47,2.1,3.82,3.82,0,0,0,.57,2.43,2,2,0,0,0,1.58.66,2,2,0,0,0,1.5-.53A3.21,3.21,0,0,0,281,22.47Z"/><path class="cls-2" d="M286.51,16.18H297v2.63h-3.53v8H290v-8h-3.53Z"/><path class="cls-2" d="M299.79,21.52a5.38,5.38,0,0,1,1.52-4.07A5.92,5.92,0,0,1,305.56,16a6,6,0,0,1,4.31,1.43,5.25,5.25,0,0,1,1.51,4,6.31,6.31,0,0,1-.66,3.06,4.57,4.57,0,0,1-1.91,1.86,6.6,6.6,0,0,1-3.11.67,7.47,7.47,0,0,1-3.13-.58,4.61,4.61,0,0,1-2-1.81A5.76,5.76,0,0,1,299.79,21.52Zm3.45,0a3.44,3.44,0,0,0,.63,2.32,2.48,2.48,0,0,0,3.44,0,3.77,3.77,0,0,0,.61-2.48,3.13,3.13,0,0,0-.64-2.19,2.2,2.2,0,0,0-1.72-.7,2.15,2.15,0,0,0-1.68.71A3.45,3.45,0,0,0,303.24,21.53Z"/><path class="cls-2" d="M314.93,26.83V16.18h5.76a9,9,0,0,1,2.45.26,2.67,2.67,0,0,1,1.36,1,3.13,3.13,0,0,1,.12,3.26,3,3,0,0,1-1.09,1,4.22,4.22,0,0,1-1.21.42,3.23,3.23,0,0,1,.9.4,3.18,3.18,0,0,1,.55.56,3.67,3.67,0,0,1,.48.66l1.68,3.08H322l-1.85-3.25a2.43,2.43,0,0,0-.62-.82,1.47,1.47,0,0,0-.85-.25h-.3v4.32Zm3.47-6.33h1.45a5.25,5.25,0,0,0,.92-.15.88.88,0,0,0,.56-.33.94.94,0,0,0,.22-.62,1,1,0,0,0-.34-.79,2.12,2.12,0,0,0-1.29-.28H318.4Z"/><path class="cls-2" d="M327.55,16.18h3.84l2.25,3.6,2.26-3.6h3.82l-4.35,6.19v4.46H331.9V22.37Z"/><path class="cls-2" d="M349.31,16.18h9.27v2.28h-5.8v1.69h5.38v2.17h-5.38v2.1h6v2.41h-9.43Z"/><path class="cls-2" d="M367.68,19.12h2.91v7.63a3.13,3.13,0,0,1-1.18,2.45,3.5,3.5,0,0,1-1.37.58,8.27,8.27,0,0,1-1.89.19,5.86,5.86,0,0,1-3.36-.7,2.24,2.24,0,0,1-.91-1.87c0-.1,0-.23,0-.39l3,.33a.94.94,0,0,0,.35.55,1.55,1.55,0,0,0,.86.22,1.34,1.34,0,0,0,1-.34,1.69,1.69,0,0,0,.33-1.19V25.41A3.08,3.08,0,0,1,365,26.52a3.12,3.12,0,0,1-2.62-1.35,4.18,4.18,0,0,1-.71-2.54,3.78,3.78,0,0,1,.92-2.74,3.17,3.17,0,0,1,2.39-.95,3.41,3.41,0,0,1,1.56.31,3.34,3.34,0,0,1,1.15,1Zm-2.92,3.74a1.77,1.77,0,0,0,.37,1.24,1.38,1.38,0,0,0,2,0,1.76,1.76,0,0,0,.39-1.26,1.87,1.87,0,0,0-.41-1.29,1.33,1.33,0,0,0-1-.44,1.19,1.19,0,0,0-.95.41A2.11,2.11,0,0,0,364.76,22.86Z"/><path class="cls-2" d="M379.74,19.12h2.91v7.63a3,3,0,0,1-.33,1.38,2.93,2.93,0,0,1-.86,1.07,3.46,3.46,0,0,1-1.36.58,8.43,8.43,0,0,1-1.9.19,5.8,5.8,0,0,1-3.35-.7,2.24,2.24,0,0,1-.92-1.87c0-.1,0-.23,0-.39l3,.33a1,1,0,0,0,.35.55,1.56,1.56,0,0,0,.87.22,1.33,1.33,0,0,0,1-.34,1.69,1.69,0,0,0,.33-1.19V25.41a3.35,3.35,0,0,1-.91.75,3.43,3.43,0,0,1-1.55.36,3.12,3.12,0,0,1-2.63-1.35,4.18,4.18,0,0,1-.71-2.54,3.78,3.78,0,0,1,.92-2.74,3.19,3.19,0,0,1,2.39-.95,3.41,3.41,0,0,1,1.56.31,3.25,3.25,0,0,1,1.15,1Zm-2.92,3.74a1.82,1.82,0,0,0,.37,1.24,1.38,1.38,0,0,0,2,0,1.76,1.76,0,0,0,.39-1.26,1.82,1.82,0,0,0-.41-1.29,1.33,1.33,0,0,0-1-.44,1.16,1.16,0,0,0-.95.41A2.05,2.05,0,0,0,376.82,22.86Z"/><path class="cls-2" d="M384.8,17.1h2.65v1.95a2.72,2.72,0,0,1-.47,1.7,3.7,3.7,0,0,1-1.6,1.09l-.58-1a2.94,2.94,0,0,0,1-.62,1.25,1.25,0,0,0,.3-.74H384.8Z"/><path class="cls-2" d="M388.93,24.69l3.09-.28a1.4,1.4,0,0,0,.53.75,1.65,1.65,0,0,0,.92.23,1.57,1.57,0,0,0,1-.26.53.53,0,0,0-.08-1,7.44,7.44,0,0,0-1.33-.31,14,14,0,0,1-2.25-.49,2.39,2.39,0,0,1-1.06-.78,1.91,1.91,0,0,1-.43-1.24,2,2,0,0,1,.46-1.31,2.76,2.76,0,0,1,1.28-.82,6.9,6.9,0,0,1,2.19-.28,7.94,7.94,0,0,1,2.14.21,2.82,2.82,0,0,1,1.16.66,3.35,3.35,0,0,1,.76,1.2l-2.94.27a1,1,0,0,0-.38-.54,1.6,1.6,0,0,0-.89-.23,1.28,1.28,0,0,0-.76.17.54.54,0,0,0-.24.43.45.45,0,0,0,.3.43,4.73,4.73,0,0,0,1.33.26,9.74,9.74,0,0,1,2.3.47,2.57,2.57,0,0,1,1.16.85,2.06,2.06,0,0,1,.4,1.21,2.27,2.27,0,0,1-.43,1.3,2.81,2.81,0,0,1-1.33,1,6.69,6.69,0,0,1-2.48.38,6.09,6.09,0,0,1-3.17-.61A2.74,2.74,0,0,1,388.93,24.69Z"/><path class="cls-3" d="M145.66,126.55c0,.69,0,2.82.05,3.5s.09,1.36.16,2,.15,1.33.25,2,.22,1.31.36,2,.28,1.3.44,1.93.34,1.27.54,1.9.4,1.24.63,1.85.46,1.22.71,1.82.52,1.18.8,1.76.57,1.16.88,1.72.63,1.13,1,1.68.68,1.09,1,1.62.73,1.05,1.12,1.56.77,1,1.18,1.51.83,1,1.26,1.45.87.93,1.32,1.39.91.89,1.38,1.32,1,.84,1.45,1.25,1,.8,1.51,1.19,1,.75,1.57,1.11,1.07.71,1.62,1,1.1.65,1.67,1,1.14.6,1.72.88,1.17.55,1.77.8,1.2.49,1.81.72,1.23.43,1.86.62,1.25.38,1.89.54,1.28.32,1.93.45,1.31.25,2,.35,1.32.18,2,.25,1.34.12,2,.16,1.37,0,2.06,0,1.37,0,2,0,1.36-.09,2-.16,1.34-.15,2-.25,1.31-.22,2-.35,1.3-.28,1.93-.45,1.27-.34,1.9-.54,1.24-.4,1.86-.62,1.21-.47,1.81-.72,1.19-.52,1.77-.8,1.15-.57,1.72-.88,1.12-.63,1.67-1,1.09-.68,1.62-1,1.05-.73,1.57-1.11,1-.78,1.5-1.19,1-.82,1.45-1.25.94-.87,1.39-1.32.89-.92,1.32-1.39.85-1,1.25-1.45.81-1,1.19-1.51.76-1,1.11-1.56.71-1.07,1-1.62.66-1.11,1-1.68.61-1.13.89-1.72.54-1.17.79-1.76.5-1.21.72-1.82.43-1.23.63-1.85.37-1.26.54-1.9.31-1.28.44-1.93.25-1.3.35-2,.19-1.33.26-2,.12-1.35.15-2,0-1.37,0-2.05V81.53c0-.68,0-1.37,0-2s-.09-1.36-.15-2-.16-1.33-.26-2-.22-1.31-.35-2-.28-1.3-.44-1.93-.35-1.27-.54-1.9-.41-1.24-.63-1.85-.46-1.22-.72-1.82-.51-1.18-.79-1.76-.58-1.16-.89-1.73-.62-1.12-1-1.67-.68-1.09-1-1.62-.73-1.05-1.11-1.56-.78-1-1.19-1.51-.82-1-1.25-1.45-.87-.93-1.32-1.39-.91-.89-1.39-1.32-1-.85-1.45-1.25-1-.8-1.5-1.19-1-.75-1.57-1.11-1.07-.71-1.62-1-1.11-.65-1.67-1-1.14-.6-1.72-.88-1.18-.55-1.77-.8-1.2-.49-1.81-.72-1.23-.43-1.86-.62-1.26-.38-1.9-.54-1.28-.32-1.93-.45-1.3-.25-2-.35-1.33-.19-2-.25-1.35-.12-2-.16-1.36,0-2,0-1.38,0-2.06,0-1.35.09-2,.16-1.34.15-2,.25-1.32.22-2,.35-1.29.28-1.93.45-1.27.34-1.89.54-1.25.4-1.86.62-1.22.47-1.81.72-1.19.52-1.77.8-1.16.57-1.72.88-1.13.63-1.67,1-1.09.68-1.62,1-1.06.73-1.57,1.11-1,.78-1.51,1.19-1,.82-1.45,1.25-.93.87-1.38,1.32-.9.92-1.32,1.39-.85,1-1.26,1.45-.8,1-1.18,1.51-.76,1-1.12,1.56-.7,1.07-1,1.62-.65,1.11-1,1.67-.6,1.14-.88,1.73-.55,1.17-.8,1.76-.49,1.21-.71,1.82-.44,1.23-.63,1.85-.38,1.26-.54,1.9-.31,1.28-.44,1.93-.26,1.3-.36,2-.18,1.33-.25,2-.12,1.35-.16,2-.05,1.37-.05,2,0,1.38.05,2.06.09,1.36.16,2,.15,1.33.25,2,.22,1.31.36,2,.28,1.29.44,1.93.34,1.27.54,1.9.4,1.24.63,1.85.46,1.22.71,1.82.52,1.18.8,1.76.57,1.16.88,1.73.63,1.12,1,1.67.68,1.09,1,1.62.73,1,1.12,1.56.77,1,1.18,1.51.83,1,1.26,1.45.87.93,1.32,1.39.91.89,1.38,1.32,1,.85,1.45,1.25,1,.8,1.51,1.19,1,.75,1.57,1.11,1.07.7,1.62,1,1.1.65,1.67,1,1.14.6,1.72.88,1.17.55,1.77.8,1.2.49,1.81.72,1.23.43,1.86.62,1.25.38,1.89.54,1.28.32,1.93.45,1.31.25,2,.35,1.32.19,2,.25,1.34.12,2,.16,1.37,0,2.06,0h13.68a1.5,1.5,0,0,0,1.54-1.58V104.21a1.52,1.52,0,0,0-1.54-1.52H185l-.54,0-.54,0-.53,0-.53-.06-.53-.07-.52-.09-.52-.1-.51-.11-.51-.13-.5-.13-.5-.15-.5-.16-.49-.17-.48-.18-.48-.2-.47-.21-.46-.21-.46-.23-.45-.24-.45-.25-.44-.26-.43-.27-.43-.28-.41-.29-.41-.3-.41-.31-.39-.32-.39-.32-.38-.34-.37-.34-.36-.36-.36-.36c-.11-.13-.23-.25-.34-.37l-.34-.38-.32-.39c-.12-.13-.22-.26-.32-.39l-.31-.41c-.1-.13-.21-.27-.3-.41s-.2-.27-.29-.42l-.28-.42-.27-.43-.26-.44c-.09-.15-.17-.3-.25-.45l-.24-.45c-.08-.15-.15-.31-.23-.46s-.14-.31-.22-.47-.13-.31-.2-.47-.13-.31-.2-.47l-.18-.48c-.06-.17-.12-.33-.17-.49s-.11-.33-.16-.5l-.15-.5c0-.16-.09-.33-.14-.5l-.12-.51c0-.17-.08-.34-.11-.51s-.07-.35-.1-.52l-.09-.52c0-.18,0-.35-.07-.53a4.78,4.78,0,0,1-.06-.53c0-.18,0-.36,0-.53s0-.36,0-.54l0-.55V81l0-.54c0-.18,0-.36,0-.54s0-.35,0-.53a4.52,4.52,0,0,1,.06-.53c0-.18.05-.35.07-.53l.09-.52c0-.18.06-.35.1-.52s.07-.34.11-.51l.12-.51c0-.17.09-.34.14-.51l.15-.49c.05-.17.1-.33.16-.5s.11-.32.17-.49l.18-.48.2-.48c.07-.15.13-.31.2-.47s.15-.31.22-.46.15-.31.23-.46l.24-.45c.08-.15.16-.3.25-.45s.17-.29.26-.44l.27-.43c.09-.14.18-.29.28-.43s.19-.28.29-.41.2-.28.3-.41l.31-.41c.1-.13.2-.26.32-.39l.32-.39.34-.38.34-.37.36-.36.36-.36.37-.34.38-.34.39-.33.39-.31.41-.31a3.91,3.91,0,0,1,.41-.3l.41-.29.43-.28.43-.27.44-.26.45-.25.45-.24.46-.23.46-.22.47-.2.48-.2.48-.18.49-.17.5-.16.5-.15.5-.14.51-.12.51-.11.52-.1.52-.09.53-.07c.17,0,.35-.05.53-.06l.53,0,.54,0,.54,0h1.09l.55,0,.54,0,.53,0c.18,0,.35,0,.53.06l.53.07.52.09.52.1.51.11.51.12.5.14.5.15.5.16.48.17.49.18.47.2.48.2.46.22.46.23.45.24.45.25.44.26.43.27.42.28.42.29a3.91,3.91,0,0,1,.41.3l.41.31.39.31.39.33.38.34.37.34.36.36.36.36.34.37.34.38.32.39.32.39.31.41.3.41c.1.13.2.27.29.41s.19.29.28.43l.27.43c.09.15.18.29.26.44s.17.3.25.45l.24.45c.08.15.15.3.23.46l.21.46.21.47.2.48.18.48c.06.17.12.33.17.49s.11.33.16.5l.15.49c.05.17.09.34.14.51l.12.51c0,.17.08.34.11.51s.07.34.1.52l.09.52c0,.18.05.35.07.53l.06.53c0,.18,0,.35,0,.53l0,.54c0,.18,0,.36,0,.54s0,.37,0,.55V128c0,.18,0,.36,0,.55s0,.36,0,.54l0,.54c0,.18,0,.35,0,.53l-.06.53c0,.18-.05.35-.07.53l-.09.52c0,.18-.06.35-.1.52s-.07.34-.11.51l-.12.51c-.05.17-.09.34-.14.51l-.15.49c-.05.17-.1.33-.16.5s-.11.32-.17.49l-.18.48-.2.48-.21.47-.21.46c-.08.16-.15.31-.23.46l-.24.45c-.08.15-.16.3-.25.45s-.17.29-.26.44l-.27.43-.28.43c-.09.14-.19.28-.29.41l-.3.41-.31.41-.32.39-.32.39-.34.38-.34.37-.36.36-.36.36-.37.34-.38.34-.39.33-.39.32-.41.3-.41.3-.42.29-.42.28-.43.27-.44.26-.45.25-.45.24-.46.23-.46.21c-.16.08-.32.14-.48.21l-.47.2-.49.18-.48.17-.5.16-.5.15-.5.14-.51.12-.51.11-.52.1-.52.09-.53.07a4.78,4.78,0,0,1-.53.06l-.53,0-.54,0-.55,0H185l-.54,0-.54,0-.53,0a4.52,4.52,0,0,1-.53-.06l-.53-.07-.52-.09-.52-.1-.51-.11-.51-.12-.5-.14-.5-.15-.5-.16-.49-.17-.48-.18-.48-.2-.47-.21-.46-.21-.46-.23-.45-.24-.45-.25-.44-.26-.43-.27-.43-.28-.41-.29-.41-.3-.41-.3-.39-.32-.39-.33-.38-.34-.37-.34-.36-.36-.36-.36-.34-.37-.34-.38-.32-.39c-.12-.13-.22-.26-.32-.39l-.31-.41c-.1-.13-.21-.27-.3-.41s-.2-.27-.29-.41l-.28-.43-.27-.43c-.09-.15-.18-.29-.26-.44s-.17-.3-.25-.45l-.24-.45c-.08-.15-.15-.3-.23-.46s-.14-.31-.22-.46-.13-.32-.2-.47l-.2-.48-.18-.48c-.06-.17-.12-.33-.17-.49s-.11-.33-.16-.5l-.15-.49c0-.17-.09-.34-.14-.51l-.12-.51c0-.17-.08-.34-.11-.51s-.07-.34-.1-.52l-.09-.52c0-.18,0-.35-.07-.53a4.78,4.78,0,0,1-.06-.53c0-.18,0-.35,0-.53s0-.36,0-.54l0-.54v-2a1.57,1.57,0,0,0-1.75-1.61H147.35A1.62,1.62,0,0,0,145.66,126.55Z"/><path class="cls-3" d="M9.11,71.85H1s-1.53,0-.71-1.52S7.68,54.56,7.68,54.56A2.51,2.51,0,0,1,9.92,53h11c.16-1,.38-2.15.58-3.16s.44-2,.7-3,.54-2,.84-3,.63-1.95,1-2.9.72-1.9,1.12-2.84.81-1.85,1.25-2.76.9-1.81,1.38-2.69,1-1.76,1.5-2.61,1.06-1.71,1.62-2.54,1.15-1.64,1.75-2.45,1.21-1.58,1.85-2.35,1.29-1.53,2-2.27S37.8,19,38.5,18.29s1.43-1.39,2.17-2.06,1.5-1.33,2.27-2S44.5,13,45.3,12.41s1.61-1.18,2.44-1.74,1.68-1.1,2.53-1.62S52,8,52.89,7.55s1.78-.94,2.69-1.38,1.83-.86,2.77-1.25,1.87-.77,2.83-1.12,1.92-.68,2.9-1,2-.58,3-.84,2-.49,3-.7,2-.39,3.08-.55S75.21.44,76.26.34,78.37.15,79.43.1,81.56,0,82.64,0s2.15,0,3.21.09S88,.23,89,.34s2.09.24,3.12.39,2.06.34,3.08.55,2,.44,3,.7,2,.54,3,.84,2,.63,2.9,1,1.9.72,2.83,1.12,1.86.81,2.77,1.25,1.81.9,2.69,1.38,1.76,1,2.61,1.5,1.71,1.06,2.54,1.62,1.64,1.14,2.44,1.74,1.59,1.22,2.36,1.86,1.53,1.29,2.27,2,1.46,1.36,2.16,2.06,1.4,1.43,2.07,2.17,1.33,1.5,2,2.27,1.26,1.55,1.86,2.35,1.18,1.62,1.74,2.45,1.1,1.68,1.62,2.54,1,1.72,1.5,2.61.94,1.78,1.38,2.69.86,1.83,1.25,2.76c0,0,1.71,3.48-2.41,3.48H122.62a3.51,3.51,0,0,1-2.89-1.6c-.18-.3-.37-.59-.56-.89s-.37-.58-.57-.87-.39-.57-.6-.86l-.61-.84-.63-.83-.66-.81c-.22-.27-.44-.53-.67-.79l-.69-.78c-.23-.26-.47-.51-.71-.76s-.48-.5-.73-.75l-.74-.73-.76-.71L111,29.7l-.8-.67c-.26-.22-.53-.44-.81-.65s-.55-.43-.82-.63-.56-.42-.85-.62-.56-.4-.85-.59L106,26l-.88-.55-.9-.53-.92-.52-.93-.49-.94-.46-1-.45-1-.42-1-.4-1-.38-1-.35-1-.33-1-.31-1-.27-1-.26L91.38,20l-1.06-.2q-.54-.11-1.08-.18c-.35-.06-.72-.11-1.08-.15l-1.09-.13L86,19.26l-1.11-.07-1.11-.05H81.52l-1.11.05-1.11.07-1.09.09-1.09.13q-.54.06-1.08.15T75,19.81L73.9,20l-1.05.23-1,.26-1,.27-1,.31-1,.33-1,.35-1,.38-1,.4-1,.42-1,.45-.94.46-.93.49-.91.52c-.31.17-.61.35-.91.53l-.88.55-.88.58-.85.59c-.29.2-.57.41-.85.62s-.55.41-.82.63-.55.43-.81.65l-.8.67-.78.69-.76.71-.74.73c-.25.25-.49.49-.73.75s-.48.5-.71.76l-.69.78c-.23.26-.45.52-.67.79l-.66.81-.63.83-.61.84c-.21.29-.4.57-.6.86s-.39.58-.57.87-.38.59-.56.89-.36.6-.53.9l-.51.91c-.17.31-.33.62-.49.93l-.47.94c-.15.32-.3.64-.44,1s-.29.64-.43,1-.27.66-.4,1-.25.66-.37,1-.24.66-.36,1l-.33,1-.3,1c-.1.35-.19.69-.28,1s-.26,1-.34,1.35H99s1.53,0,.71,1.53-7.47,15.71-7.47,15.71-.78,1.6-2.21,1.6H40.3c.08.35.25,1,.34,1.34s.18.69.28,1l.3,1,.33,1c.12.33.23.67.36,1s.24.66.37,1,.26.65.4,1,.28.64.43,1,.29.64.44,1,.31.63.47.94.32.62.49.93l.51.91c.17.31.35.61.53.9s.37.6.56.89.38.59.57.87.39.58.6.86l.61.84.63.83.66.81.67.8.69.78.71.76c.24.25.48.5.73.74s.49.49.74.73l.76.71.78.69c.26.23.53.45.8.67s.53.44.81.65l.82.64.85.61.85.6.88.57.88.56.91.53.91.51.93.49.94.47,1,.44c.32.15.65.29,1,.42l1,.41,1,.37,1,.35,1,.33,1,.31,1,.28,1,.25,1.05.23L75,105l1.08.17q.54.09,1.08.15l1.09.13,1.09.1,1.11.07,1.11,0h2.24l1.11,0,1.11-.07,1.09-.1,1.09-.13c.36,0,.73-.09,1.08-.15l1.08-.17,1.06-.21,1.05-.23,1-.25,1-.28,1-.31,1-.33,1-.35,1-.37,1-.41c.32-.13.65-.27,1-.42l1-.44.94-.47.93-.49.92-.51.9-.53.88-.56.88-.57.85-.6.85-.61.82-.64c.28-.21.55-.43.81-.65s.54-.44.8-.67l.78-.69.76-.71c.25-.24.5-.48.74-.73s.49-.49.73-.74l.71-.76.69-.78.67-.8.66-.81.63-.83.61-.84c.21-.28.4-.57.6-.86s.39-.58.57-.87.38-.59.56-.89a3.51,3.51,0,0,1,2.89-1.6h15.12c4.12,0,2.41,3.48,2.41,3.48-.39.93-.81,1.85-1.25,2.76s-.9,1.81-1.38,2.69-1,1.76-1.5,2.62-1.06,1.7-1.62,2.53-1.15,1.65-1.74,2.45-1.22,1.58-1.86,2.35-1.29,1.53-2,2.27-1.36,1.46-2.07,2.17-1.42,1.39-2.16,2.06-1.5,1.33-2.27,2-1.56,1.25-2.36,1.85-1.61,1.18-2.44,1.74-1.68,1.1-2.54,1.62-1.72,1-2.61,1.5-1.78.94-2.69,1.38-1.83.86-2.77,1.25-1.87.77-2.83,1.12-1.92.68-2.9,1-2,.59-3,.84-2,.49-3,.7-2,.39-3.08.55-2.07.29-3.12.4-2.1.18-3.17.24-2.13.08-3.21.08-2.15,0-3.21-.08-2.12-.14-3.17-.24-2.09-.24-3.12-.4-2.06-.34-3.08-.55-2-.44-3-.7-2-.53-3-.84-1.95-.63-2.9-1-1.9-.72-2.83-1.12-1.86-.81-2.77-1.25-1.81-.89-2.69-1.38-1.76-1-2.62-1.5-1.7-1.06-2.53-1.62S46.1,113,45.3,112.43s-1.59-1.22-2.36-1.85-1.53-1.29-2.27-2-1.46-1.36-2.17-2.06-1.39-1.43-2.06-2.17-1.33-1.49-2-2.27-1.26-1.55-1.85-2.35-1.18-1.62-1.75-2.45-1.1-1.67-1.62-2.53-1-1.73-1.5-2.62-.94-1.78-1.38-2.69-.85-1.83-1.25-2.76-.77-1.88-1.12-2.84S23.34,82,23,81s-.58-2-.84-3-.49-2-.7-3-.42-2.11-.58-3.14Z"/><path class="cls-3" d="M320.37,89.66h56.57c-.07.16-.14.41-.21.57s-.14.31-.22.47l-.22.45-.24.45c-.08.16-.17.3-.25.45s-.17.3-.26.44l-.27.43c-.09.15-.19.29-.28.43l-.29.42-.3.41-.31.4c-.11.13-.21.27-.32.39a4.24,4.24,0,0,1-.33.39l-.33.38-.35.37c-.11.13-.23.25-.35.37l-.36.35-.38.35-.38.33-.38.33-.4.32-.4.31-.41.3-.42.29-.43.28c-.14.09-.28.18-.43.26l-.44.26c-.14.09-.29.17-.44.25l-.45.24-.46.23-.47.22-.47.2-.48.2-.48.18-.49.17-.49.17-.5.14-.5.14-.51.12-.52.12-.51.09-.53.09-.52.07-.53.07-.54,0-.54,0-.54,0h-1.14l-.54,0-.54,0-.53,0-.53-.07-.53-.07-.52-.09-.52-.09-.51-.12-.51-.12-.5-.14-.5-.14-.5-.17-.49-.17-.48-.18-.48-.2-.47-.2-.46-.22-.46-.23c-.15-.08-.3-.15-.45-.24l-.45-.25-.44-.26-.43-.26-.42-.28-.42-.29-.41-.3-.41-.31-.39-.32-.39-.33-.38-.33-.37-.35-.36-.35-.36-.37c-.11-.12-.23-.24-.34-.37A3.62,3.62,0,0,0,339,94.32H322.15c-2.5,0-1.52,2.73-1.52,2.73.25.6.52,1.18.8,1.77s.58,1.16.88,1.72.63,1.12,1,1.67.68,1.09,1,1.62.73,1,1.12,1.57.77,1,1.18,1.5.83,1,1.26,1.45.87.94,1.32,1.39.91.89,1.38,1.32,1,.85,1.45,1.26,1,.8,1.51,1.18,1,.76,1.57,1.12,1.07.7,1.62,1,1.1.66,1.67,1,1.14.61,1.72.89,1.17.54,1.77.8,1.2.49,1.81.71,1.23.43,1.86.63,1.25.37,1.89.54,1.28.31,1.93.44,1.31.25,2,.35,1.32.19,2,.26,1.34.12,2,.15,1.38.05,2.07.05,1.39,0,2.08-.05,1.35-.08,2-.15,1.34-.16,2-.26,1.32-.22,2-.35,1.29-.28,1.93-.44,1.27-.35,1.89-.54,1.25-.41,1.86-.63,1.21-.46,1.81-.71,1.19-.52,1.77-.8,1.16-.58,1.72-.89,1.12-.62,1.67-1,1.09-.68,1.62-1,1.06-.74,1.57-1.12,1-.78,1.5-1.18,1-.83,1.46-1.26.93-.87,1.38-1.32.89-.91,1.32-1.39.85-.95,1.26-1.45.8-1,1.18-1.5.76-1,1.12-1.57.7-1.07,1-1.62.66-1.11,1-1.67.6-1.14.88-1.72.54-1.17.8-1.77.49-1.2.71-1.81.44-1.23.63-1.86.37-1.26.54-1.89.31-1.29.44-1.94.25-1.3.35-2,.19-1.33.26-2,.12-1.35.15-2,.05-1.36.05-2,0-1.38-.05-2.06-.09-1.35-.15-2-.16-1.34-.26-2-.21-1.32-.35-2a2,2,0,0,0-1.92-1.59H338.71l.24-.46.25-.44c.09-.15.17-.3.26-.44l.27-.43c.09-.15.19-.29.28-.43l.29-.42.3-.41.31-.4c.1-.14.21-.27.32-.4s.21-.26.33-.38l.33-.38c.11-.13.23-.25.35-.38l.35-.36.36-.35.38-.35.37-.33.39-.33.4-.32.4-.31.41-.3.42-.29.42-.28.43-.27.44-.26.45-.24a4.92,4.92,0,0,1,.45-.24l.46-.23.47-.22.47-.2.47-.2.49-.18.48-.18.5-.16.5-.14.5-.14.51-.13.52-.11.51-.1.52-.08.53-.07.53-.07.54,0,.54,0,.54,0h1.11l.54,0,.54,0,.54,0,.53.07.52.07.53.08.52.1.51.11.51.13.5.14.5.14.49.16.49.18.49.18.47.2.47.2.47.22.46.23a4.92,4.92,0,0,1,.45.24l.44.24.44.26.43.27.43.28.42.29.41.3.4.31.4.32s1.51,1.65,2.9,1.65h18.32s2.65,0,1.32-2.63c-.28-.58-.57-1.16-.88-1.72s-.63-1.13-1-1.67-.68-1.09-1-1.62-.73-1.06-1.11-1.57-.78-1-1.19-1.5-.82-1-1.25-1.45-.87-.94-1.32-1.39-.92-.89-1.39-1.32-.95-.85-1.45-1.26-1-.8-1.5-1.18-1-.76-1.57-1.12-1.07-.7-1.62-1-1.11-.66-1.67-1-1.14-.61-1.72-.89-1.18-.54-1.77-.8-1.21-.49-1.81-.71-1.23-.43-1.86-.63-1.26-.37-1.9-.54-1.28-.31-1.93-.44-1.3-.25-2-.35-1.33-.19-2-.26-1.35-.12-2-.15-1.38,0-2.06,0-1.39,0-2.07,0-1.36.08-2,.15-1.34.16-2,.26-1.31.21-2,.35-1.3.28-1.93.44-1.27.35-1.9.54-1.24.4-1.85.63-1.22.46-1.82.71-1.18.52-1.77.8-1.15.58-1.72.89-1.12.62-1.67,1-1.09.67-1.62,1-1,.73-1.57,1.12-1,.78-1.5,1.18-1,.83-1.45,1.26-.94.87-1.39,1.32-.89.91-1.32,1.39-.85.95-1.25,1.45-.81,1-1.19,1.5-.76,1-1.11,1.57-.71,1.07-1,1.62-.66,1.1-1,1.67-.6,1.14-.88,1.72-.55,1.17-.8,1.77-.49,1.2-.72,1.81-.43,1.23-.63,1.86-.37,1.25-.53,1.89-.32,1.28-.45,1.93-.25,1.31-.35,2-.19,1.33-.25,2-.12,1.34-.16,2-.05,1.36-.05,2.05,0,1.37.05,2,.09,1.36.16,2,.15,1.34.25,2a2.33,2.33,0,0,0,2.3,2.07"/><path class="cls-4" d="M200.6,81.48A9.53,9.53,0,1,1,191.07,72,9.53,9.53,0,0,1,200.6,81.48Z"/><path class="cls-3" d="M231.37,126.55c0,.69,0,2.82,0,3.5s.09,1.36.16,2,.15,1.33.25,2,.22,1.31.35,2,.28,1.3.45,1.93.34,1.27.53,1.9.41,1.24.63,1.85.46,1.22.72,1.82.52,1.18.8,1.76.57,1.16.88,1.72.63,1.13,1,1.68.68,1.09,1,1.62.73,1.05,1.11,1.56.78,1,1.19,1.51.82,1,1.25,1.45.87.93,1.32,1.39.92.89,1.39,1.32,1,.84,1.45,1.25,1,.8,1.51,1.19,1,.75,1.56,1.11,1.07.71,1.62,1,1.11.65,1.67,1,1.14.6,1.73.88,1.17.55,1.76.8,1.21.49,1.82.72,1.23.43,1.85.62,1.26.38,1.9.54,1.28.32,1.93.45,1.3.25,2,.35,1.33.18,2,.25,1.35.12,2,.16,1.37,0,2.06,0,1.37,0,2.05,0,1.36-.09,2-.16,1.33-.15,2-.25,1.32-.22,2-.35,1.29-.28,1.93-.45,1.27-.34,1.9-.54,1.24-.4,1.85-.62,1.22-.47,1.81-.72,1.19-.52,1.77-.8,1.16-.57,1.73-.88,1.12-.63,1.67-1,1.09-.68,1.62-1,1.05-.73,1.56-1.11,1-.78,1.51-1.19,1-.82,1.45-1.25.93-.87,1.39-1.32.89-.92,1.32-1.39.85-1,1.25-1.45.8-1,1.19-1.51.75-1,1.11-1.56.7-1.07,1-1.62.65-1.11,1-1.68.6-1.13.88-1.72.55-1.17.8-1.76.49-1.21.72-1.82.43-1.23.62-1.85.38-1.26.54-1.9.31-1.28.45-1.93.25-1.3.35-2,.18-1.33.25-2,.12-1.35.16-2,.05-1.37.05-2.05V81.53c0-.68,0-1.37-.05-2s-.09-1.36-.16-2-.15-1.33-.25-2-.22-1.31-.35-2-.29-1.3-.45-1.93-.34-1.27-.54-1.9-.4-1.24-.62-1.85-.47-1.22-.72-1.82-.52-1.18-.8-1.76-.57-1.16-.88-1.73-.63-1.12-1-1.67-.68-1.09-1-1.62-.73-1.05-1.11-1.56-.78-1-1.19-1.51-.82-1-1.25-1.45-.87-.93-1.32-1.39-.92-.89-1.39-1.32-1-.85-1.45-1.25-1-.8-1.51-1.19-1-.75-1.56-1.11-1.07-.71-1.62-1-1.11-.65-1.67-1-1.14-.6-1.73-.88-1.17-.55-1.77-.8-1.2-.49-1.81-.72-1.23-.43-1.85-.62-1.26-.38-1.9-.54-1.28-.32-1.93-.45-1.3-.25-2-.35-1.32-.19-2-.25-1.35-.12-2-.16-1.37,0-2.05,0-1.38,0-2.06,0-1.36.09-2,.16-1.33.15-2,.25-1.31.22-2,.35-1.3.28-1.93.45-1.27.34-1.9.54-1.24.4-1.85.62-1.22.47-1.82.72-1.18.52-1.76.8-1.16.57-1.73.88-1.12.63-1.67,1-1.09.68-1.62,1-1.05.73-1.56,1.11-1,.78-1.51,1.19-1,.82-1.45,1.25-.93.87-1.39,1.32-.89.92-1.32,1.39-.85,1-1.25,1.45-.81,1-1.19,1.51-.75,1-1.11,1.56-.71,1.07-1,1.62-.65,1.11-1,1.67-.6,1.14-.88,1.73-.55,1.17-.8,1.76-.49,1.21-.72,1.82-.43,1.23-.63,1.85-.37,1.26-.53,1.9-.32,1.28-.45,1.93-.25,1.3-.35,2-.19,1.33-.25,2-.12,1.35-.16,2,0,1.37,0,2,0,1.38,0,2.06.09,1.36.16,2,.15,1.33.25,2,.22,1.31.35,2,.28,1.29.45,1.93.34,1.27.53,1.9.41,1.24.63,1.85.46,1.22.72,1.82.52,1.18.8,1.76.57,1.16.88,1.73.63,1.12,1,1.67.68,1.09,1,1.62.73,1,1.11,1.56.78,1,1.19,1.51.82,1,1.25,1.45.87.93,1.32,1.39.92.89,1.39,1.32,1,.85,1.45,1.25,1,.8,1.51,1.19,1,.75,1.56,1.11,1.07.7,1.62,1,1.11.65,1.67,1,1.14.6,1.73.88,1.17.55,1.76.8,1.21.49,1.82.72,1.23.43,1.85.62,1.26.38,1.9.54,1.28.32,1.93.45,1.3.25,2,.35,1.33.19,2,.25,1.35.12,2,.16,1.37,0,2.06,0H285a1.5,1.5,0,0,0,1.54-1.58V104.21a1.52,1.52,0,0,0-1.54-1.52H270.75l-.54,0-.54,0-.54,0-.53-.06-.52-.07-.53-.09-.51-.1-.52-.11L266,102l-.5-.13-.5-.15-.49-.16-.49-.17-.48-.18-.48-.2-.47-.21-.47-.21-.46-.23-.45-.24-.44-.25-.44-.26-.43-.27-.43-.28-.42-.29-.41-.3-.4-.31-.4-.32-.38-.32c-.13-.11-.26-.22-.38-.34l-.37-.34-.37-.36-.35-.36-.35-.37-.33-.38L255,95l-.32-.39-.31-.41-.3-.41-.29-.42-.28-.42-.27-.43c-.08-.15-.17-.3-.26-.44s-.17-.3-.24-.45a4.92,4.92,0,0,1-.24-.45c-.08-.15-.16-.31-.23-.46s-.15-.31-.22-.47l-.21-.47c-.06-.15-.13-.31-.19-.47l-.18-.48-.18-.49c-.05-.17-.1-.33-.16-.5l-.15-.5c0-.16-.09-.33-.13-.5a4.7,4.7,0,0,1-.12-.51c-.05-.17-.08-.34-.12-.51s-.06-.35-.1-.52-.06-.35-.08-.52,0-.35-.08-.53l-.06-.53c0-.18,0-.36,0-.53s0-.36,0-.54,0-.36,0-.55,0-.36,0-.54,0-.37,0-.55,0-.36,0-.54,0-.36,0-.54,0-.35,0-.53l.06-.53c0-.18,0-.35.08-.53s.05-.35.08-.52.07-.35.1-.52.07-.34.12-.51a4.7,4.7,0,0,1,.12-.51c0-.17.09-.34.13-.51l.15-.49c.06-.17.11-.33.16-.5l.18-.49.18-.48.19-.48.21-.47c.07-.15.14-.31.22-.46s.15-.31.23-.46a4.92,4.92,0,0,1,.24-.45c.07-.15.16-.3.24-.45s.18-.29.26-.44l.27-.43.28-.43.29-.41.3-.41.31-.41.32-.39.33-.39.33-.38L256,67l.35-.36.37-.36.37-.34c.12-.12.25-.23.38-.34l.38-.33.4-.31.4-.31c.14-.11.27-.21.41-.3l.42-.29.43-.28c.14-.09.28-.19.43-.27l.44-.26.44-.25.45-.24.46-.23.47-.22.47-.2.48-.2.48-.18.49-.17.49-.16.5-.15.5-.14.51-.12.52-.11.51-.1.53-.09.52-.07.53-.06.54,0,.54,0,.54,0h1.09l.54,0,.54,0,.54,0,.53.06.52.07.53.09.52.1.51.11.5.12.51.14.5.15.49.16.49.17.49.18.47.2.47.2.47.22.46.23.45.24.44.25.44.26c.15.08.29.18.43.27l.43.28.42.29c.14.09.27.19.41.3l.4.31.4.31.38.33c.13.11.26.22.38.34l.37.34.37.36.35.36.35.37.33.38c.12.13.22.26.33.39l.32.39.31.41.3.41c.1.13.19.27.29.41l.28.43.27.43.26.44c.08.15.16.3.25.45l.24.45c.07.15.15.3.22.46s.15.31.22.46l.21.47.19.48c.06.16.13.32.18.48l.18.49c.05.17.1.33.16.5l.15.49c0,.17.09.34.13.51s.09.34.13.51.07.34.11.51.06.34.1.52.06.35.08.52.05.35.08.53l.06.53c0,.18,0,.35,0,.53s0,.36,0,.54,0,.36,0,.54,0,.37,0,.55V128c0,.18,0,.36,0,.55s0,.36,0,.54,0,.36,0,.54,0,.35,0,.53l-.06.53c0,.18-.05.35-.08.53s-.05.35-.08.52-.07.35-.1.52-.07.34-.11.51-.08.34-.13.51-.09.34-.13.51l-.15.49c-.06.17-.11.33-.16.5l-.18.49c-.05.16-.12.32-.18.48l-.19.48-.21.47c-.07.15-.14.31-.22.46s-.15.31-.22.46l-.24.45c-.09.15-.17.3-.25.45l-.26.44-.27.43c-.09.14-.19.28-.28.43s-.19.28-.29.41l-.3.41-.31.41-.32.39c-.11.13-.21.26-.33.39l-.33.38-.35.37-.35.36-.37.36-.37.34c-.12.12-.25.23-.38.34l-.38.33-.4.32-.4.3-.41.3-.42.29-.43.28-.43.27-.44.26-.44.25-.45.24-.46.23c-.16.07-.31.15-.47.21s-.31.14-.47.21l-.47.2-.49.18-.49.17-.49.16-.5.15-.51.14-.5.12-.51.11-.52.1-.53.09-.52.07-.53.06-.54,0-.54,0-.54,0h-1.09l-.54,0-.54,0-.54,0-.53-.06-.52-.07-.53-.09-.51-.1-.52-.11-.51-.12-.5-.14-.5-.15-.49-.16-.49-.17-.48-.18-.48-.2-.47-.21c-.16-.06-.31-.14-.47-.21l-.46-.23-.45-.24-.44-.25-.44-.26-.43-.27-.43-.28-.42-.29-.41-.3-.4-.3-.4-.32-.38-.33c-.13-.11-.26-.22-.38-.34l-.37-.34-.37-.36-.35-.36-.35-.37-.33-.38-.33-.39-.32-.39-.31-.41-.3-.41-.29-.41c-.09-.15-.19-.29-.28-.43l-.27-.43c-.08-.15-.17-.29-.26-.44s-.17-.3-.24-.45a4.92,4.92,0,0,1-.24-.45c-.08-.15-.16-.3-.23-.46s-.15-.31-.22-.46l-.21-.47-.19-.48-.18-.48-.18-.49c-.05-.17-.1-.33-.16-.5l-.15-.49c0-.17-.09-.34-.13-.51a4.7,4.7,0,0,1-.12-.51c-.05-.17-.08-.34-.12-.51s-.06-.34-.1-.52-.06-.35-.08-.52,0-.35-.08-.53l-.06-.53c0-.18,0-.35,0-.53s0-.36,0-.54,0-.36,0-.54,0-1.79,0-2a1.56,1.56,0,0,0-1.74-1.61H233.06A1.62,1.62,0,0,0,231.37,126.55Z"/><path class="cls-5" d="M286.31,81.48A9.53,9.53,0,1,1,276.78,72,9.53,9.53,0,0,1,286.31,81.48Z"/><path class="cls-3" d="M313.76,59.42l10.6-7.6A10,10,0,0,0,327,49.23a9.84,9.84,0,0,0,.88-1.63,10.15,10.15,0,0,0,.56-1.8,9.95,9.95,0,0,0,0-3.87,10.15,10.15,0,0,0-.56-1.8A9.84,9.84,0,0,0,327,38.5a10,10,0,0,0-2.59-2.59,9.84,9.84,0,0,0-1.63-.88,10.15,10.15,0,0,0-1.8-.56,9.53,9.53,0,0,0-1.94-.2,9.43,9.43,0,0,0-1.93.2,9.68,9.68,0,0,0-3.43,1.44,10,10,0,0,0-1.42,1.17,9.77,9.77,0,0,0-2.06,3.05,10.12,10.12,0,0,0-.55,1.8,9.46,9.46,0,0,0,0,3.87,10.12,10.12,0,0,0,.55,1.8,9.77,9.77,0,0,0,2.06,3,10,10,0,0,0,1.42,1.17,9.84,9.84,0,0,0,1.63.88l-4,2.85-.52.36a2.31,2.31,0,0,0,2.74,3.71Z"/></g></g></svg>