<svg width="291" height="53" viewBox="0 0 291 53" fill="none" xmlns="http://www.w3.org/2000/svg">
<g clip-path="url(#clip0_14203_3230)">
<g clip-path="url(#clip1_14203_3230)">
<path d="M72.6735 44.0614L60.0672 6.63076C55.6491 6.24128 51.2815 6.21694 46.9728 6.63076L34.3244 44.1669L33.02 48.0536C36.1842 48.4106 39.4326 48.4106 42.7567 48.0536C43.0176 47.6722 43.2868 47.3152 43.5814 46.9663C46.1144 43.8585 49.6405 41.9274 53.5368 41.9274C57.4332 41.9274 60.9172 43.8261 63.4418 46.9014C63.7448 47.2665 64.0393 47.656 64.3086 48.0617C67.5486 48.4187 70.7801 48.4187 74.02 48.0617L72.6735 44.0695V44.0614ZM53.5368 32.9369C51.6518 32.9369 49.8172 33.1803 48.0584 33.659L53.52 15.6943L58.9816 33.659C57.2312 33.1884 55.4135 32.945 53.5368 32.945V32.9369Z" fill="#4C8941"/>
<path d="M208.674 44.0614L196.067 6.63076C191.649 6.24128 187.282 6.21694 182.973 6.63076L170.324 44.1669L169.02 48.0536C172.184 48.4106 175.433 48.4106 178.757 48.0536C179.018 47.6722 179.287 47.3152 179.581 46.9663C182.114 43.8585 185.641 41.9274 189.537 41.9274C193.433 41.9274 196.917 43.8261 199.442 46.9014C199.745 47.2665 200.039 47.656 200.309 48.0617C203.549 48.4187 206.78 48.4187 210.02 48.0617L208.674 44.0695V44.0614ZM189.528 32.9369C187.643 32.9369 185.809 33.1803 184.05 33.659L189.512 15.6943L194.973 33.659C193.223 33.1884 191.405 32.945 189.528 32.945V32.9369Z" fill="#4C8941"/>
<path d="M289.674 44.0614L277.067 6.63076C272.649 6.24128 268.282 6.21694 263.973 6.63076L251.324 44.1669L250.02 48.0536C253.184 48.4106 256.433 48.4106 259.757 48.0536C260.018 47.6722 260.287 47.3152 260.581 46.9663C263.114 43.8585 266.641 41.9274 270.537 41.9274C274.433 41.9274 277.917 43.8261 280.442 46.9014C280.745 47.2665 281.039 47.656 281.309 48.0617C284.549 48.4187 287.78 48.4187 291.02 48.0617L289.674 44.0695V44.0614ZM270.537 32.9369C268.652 32.9369 266.817 33.1803 265.058 33.659L270.52 15.6943L275.982 33.659C274.231 33.1884 272.414 32.945 270.537 32.945V32.9369Z" fill="#4C8941"/>
<path d="M248.02 6.59725C244.113 6.24019 240.19 6.24019 236.249 6.59725L222.783 25.7166V6.59725C219.512 6.24019 216.257 6.24019 213.02 6.59725V48.0251C216.266 48.4309 219.52 48.4309 222.783 48.0251V28.9139L236.249 48.0332C240.181 48.4228 244.113 48.4228 248.02 48.0332L233.427 27.3153L248.02 6.59725Z" fill="#4C8941"/>
<path d="M34.02 35.9327C34.02 38.5332 33.244 40.8921 31.7346 42.9129C30.2167 44.9417 27.9653 46.5277 25.0489 47.6468C22.1494 48.7578 18.5763 49.3295 14.4319 49.3295C12.4364 49.3295 10.6541 49.257 9.12762 49.1282C7.59263 48.9913 6.10028 48.7578 4.70174 48.4358C3.30319 48.1057 1.80231 47.6951 0.233212 47.204L0.0200195 47.1315C0.54021 44.515 1.4612 41.987 2.74889 39.5315C4.59088 40.1353 6.35611 40.6022 7.97638 40.9082C9.65634 41.2222 11.4727 41.3832 13.3829 41.3832C16.2141 41.3832 18.4569 40.9484 20.0602 40.095C21.6122 39.2658 22.3626 38.0421 22.3626 36.3433C22.3626 35.2242 22.0727 34.3386 21.4843 33.7026C20.8873 33.0505 20.0857 32.5111 19.1221 32.1166C18.1158 31.6979 17.0499 31.3276 15.9668 30.9894L11.7371 29.6771C9.63928 29.0331 7.78877 28.2602 6.25378 27.3907C4.67615 26.5131 3.43963 25.3618 2.57833 23.969C1.71703 22.5762 1.28212 20.7648 1.28212 18.5749C1.28212 14.5978 2.90239 11.5223 6.09175 9.43711C9.23848 7.37607 13.4597 6.32945 18.6531 6.32945C21.0153 6.32945 23.2666 6.50657 25.3388 6.84471C27.4025 7.1909 29.6027 7.69006 31.871 8.33413L32.1354 8.41464C31.6408 10.9104 30.7965 13.2935 29.5686 15.5558L29.4065 15.4995C27.9909 15.0084 26.5242 14.5897 25.0403 14.2596C23.5736 13.9295 21.5184 13.7524 18.926 13.7524C17.9367 13.7524 16.9134 13.8571 15.8816 14.0583C14.8924 14.2516 14.0652 14.6461 13.4256 15.2257C12.8116 15.7812 12.4961 16.6588 12.4961 17.8423C12.4961 18.7681 12.7434 19.5008 13.238 20.016C13.7496 20.5635 14.4404 21.0143 15.2846 21.3525C16.18 21.7148 17.0925 22.0449 18.005 22.3427L22.1665 23.655C24.5372 24.4199 26.6265 25.2572 28.3661 26.1508C30.1484 27.0686 31.547 28.3004 32.5277 29.806C33.5084 31.3195 34.003 33.3886 34.003 35.9408L34.02 35.9327Z" fill="#4C8941"/>
<path d="M132.363 10.4639C126.889 8.76207 122.061 9.87159 117.895 13.7925C116.688 11.5985 115.85 9.35437 115.381 7.05189C120.175 3.0309 125.598 1.7879 131.658 3.31454C132.254 5.60867 132.488 7.99457 132.363 10.4722V10.4639Z" fill="#006741"/>
<path d="M168.916 36.0996C168.916 38.7942 168.153 41.2385 166.67 43.3324C165.178 45.4347 162.965 47.0781 160.098 48.2377C158.103 49.0469 155.782 49.5724 153.175 49.8227C151.331 49.9896 149.47 49.9645 147.618 49.8227L128.507 48.3461L124.576 31.1943C121.91 32.5374 118.993 33.5302 115.917 34.1392C113.151 43.4659 104.585 49.9729 94.5598 49.9729C82.2719 49.9729 72.2806 40.0288 72.2806 27.799C72.2806 15.5692 82.2719 5.6335 94.5598 5.6335C99.5471 5.6335 104.275 7.23523 108.206 10.2802L102.514 17.5713C100.226 15.8028 97.4684 14.8684 94.5598 14.8684C87.3933 14.8684 81.5678 20.6663 81.5678 27.799C81.5678 34.9317 87.3933 40.7296 94.5598 40.7296C99.1699 40.7296 103.26 38.3687 105.565 34.7148C102.539 34.4729 99.4716 33.8806 96.4122 32.9129C96.8062 30.2183 97.6276 27.7073 98.8849 25.3547C107.602 28.1244 116.437 27.0649 122.715 23.1857L120.98 15.686C123.813 13.7089 126.948 12.9914 130.384 13.5253L136.31 39.0778L136.629 40.4376C140.267 41.4637 144.189 41.8808 148.649 41.739C151.423 41.6472 153.636 41.2885 155.212 40.4042C156.737 39.545 157.475 38.277 157.475 36.5167C157.475 35.3571 157.19 34.4395 156.611 33.7804C156.025 33.1047 155.237 32.5458 154.29 32.137C153.301 31.7032 152.253 31.3195 151.188 30.9691L147.031 29.6093C144.969 28.9419 143.15 28.141 141.641 27.2401C140.091 26.3308 138.875 25.1378 138.029 23.6946C137.182 22.2514 136.755 20.3744 136.755 18.1053C136.755 13.9842 138.347 10.7974 141.482 8.63673C144.575 6.5011 148.724 5.4166 153.829 5.4166C156.15 5.4166 158.363 5.60013 160.4 5.95051C162.428 6.30923 164.591 6.82645 166.821 7.49384L167.08 7.57726C166.594 10.1634 165.764 12.6327 164.557 14.9769L164.398 14.9185C163.007 14.4096 161.565 13.9758 160.107 13.6338C158.665 13.2917 156.645 13.1082 154.097 13.1082C153.125 13.1082 152.119 13.2083 151.104 13.4252C150.132 13.6254 149.319 14.0342 148.69 14.6349C148.087 15.2105 147.777 16.1198 147.777 17.3461C147.777 18.3055 148.02 19.0646 148.506 19.5985C149.009 20.1658 149.688 20.633 150.518 20.9833C151.398 21.3588 152.295 21.7008 153.192 22.0095L157.282 23.3692C159.612 24.1618 161.666 25.0294 163.376 25.9554C165.127 26.9064 166.502 28.1828 167.466 29.7428C168.43 31.3111 168.916 33.4551 168.916 36.0996Z" fill="#006741"/>
</g>
</g>
<defs>
<clipPath id="clip0_14203_3230">
<rect width="291" height="52.66" fill="white"/>
</clipPath>
<clipPath id="clip1_14203_3230">
<rect width="291" height="52.6661" fill="white" transform="translate(0 -0.00292969)"/>
</clipPath>
</defs>
</svg>
