<svg xmlns="http://www.w3.org/2000/svg" width="208.12" height="208.18" viewBox="0 0 208.12 208.18">
  <defs>
    <style>
      .cls-1 {
        fill: #f3d9c7;
        fill-rule: evenodd;
      }
    </style>
  </defs>
  <path id="strength-circle-txt.svg" class="cls-1" d="M9665.99,7780.11l-2.26-.56a5.569,5.569,0,0,0,.36-1.11,10.274,10.274,0,0,0,.2-1.37,6.794,6.794,0,0,0-.01-1.28,7.349,7.349,0,0,0-.68-2.43,5.1,5.1,0,0,0-3.39-2.75,6.834,6.834,0,0,0-2.5-.14,6.23,6.23,0,0,0-2.26.69,5.2,5.2,0,0,0-1.66,1.42,5.288,5.288,0,0,0-.92,2.01,7.07,7.07,0,0,0-.12,2.45,9.174,9.174,0,0,0,.3,1.51,3.852,3.852,0,0,0,.59,1.22l2.88-.33-0.35-3.06,2.28-.26,0.61,5.42-6.47.74a3.5,3.5,0,0,1-.68-0.85,8.829,8.829,0,0,1-.65-1.27,13.979,13.979,0,0,1-.55-1.45,8.129,8.129,0,0,1-.3-1.43,9.683,9.683,0,0,1,.19-3.52,8.04,8.04,0,0,1,1.34-2.81,7.177,7.177,0,0,1,2.27-1.94,8.256,8.256,0,0,1,3.03-.92,9.518,9.518,0,0,1,3.66.24,7.827,7.827,0,0,1,2.86,1.46,7.408,7.408,0,0,1,1.92,2.42,8.766,8.766,0,0,1,.9,3.05,10.263,10.263,0,0,1-.01,2.66A9.182,9.182,0,0,1,9665.99,7780.11Zm-18.06-16.17,7.1-14.75-10.37,3.64-0.77-2.23,15.58-5.39,0.02,0.08-7.24,14.78,10.52-3.69,0.77,2.21-15.6,5.39Zm1.37-31.85-3.92,2.32,3.68,6.23-1.95,1.15-3.68-6.23-3.98,2.35,4.28,7.26-1.95,1.15-5.47-9.26,13.73-8.12,5.32,9-1.93,1.14Zm-8.01-6.8a6.869,6.869,0,0,1-1.61,1.02,4.593,4.593,0,0,1-1.87.41,4.651,4.651,0,0,1-1.74-.39l-2.19,7.11-1.78-2.06,1.93-6.52a3.84,3.84,0,0,1-.27-0.29l-1.52-1.76-4.32,3.72-1.52-1.77,12.08-10.41,2.84,3.3a7.758,7.758,0,0,1,1.27,1.97,5.2,5.2,0,0,1,.46,2.03,4.182,4.182,0,0,1-.41,1.92A5.234,5.234,0,0,1,9641.29,7725.29Zm-0.7-4.63a3.209,3.209,0,0,0-.71-1.25l-1.58-1.83-4.33,3.73,1.51,1.75a3.552,3.552,0,0,0,1.17.95,2.555,2.555,0,0,0,1.16.26,2.823,2.823,0,0,0,1.01-.24,3.3,3.3,0,0,0,.8-0.5,3.43,3.43,0,0,0,.62-0.72,2.934,2.934,0,0,0,.4-0.98A2.463,2.463,0,0,0,9640.59,7720.66Zm-12.05-12.45-8.72,10.58-1.82-1.5,8.72-10.57-3.14-2.59,1.43-1.73,8.2,6.76-1.43,1.73Zm-12.4-8.91a5.889,5.889,0,0,0-1.46-1.22,3.123,3.123,0,0,0-1.97-.5,1.837,1.837,0,0,0-1.4.96,1.648,1.648,0,0,0-.18,1.27,4.444,4.444,0,0,0,.64,1.4,14.942,14.942,0,0,0,1.06,1.42,12.066,12.066,0,0,1,.93,1.26,6.009,6.009,0,0,1,.67,1.43,3.825,3.825,0,0,1,.14,1.59,4.793,4.793,0,0,1-.68,1.84,4.294,4.294,0,0,1-1.68,1.65,4.46,4.46,0,0,1-2.4.5,6.073,6.073,0,0,1-2.76-.89,8.085,8.085,0,0,1-1.59-1.2,10.41,10.41,0,0,1-1.25-1.43,8.291,8.291,0,0,1-.87-1.5l1.82-1.07a6.076,6.076,0,0,0,.68,1.24,7.661,7.661,0,0,0,.96,1.17,4.944,4.944,0,0,0,1.1.89,4.274,4.274,0,0,0,1.36.5,2.833,2.833,0,0,0,1.42-.09,2.046,2.046,0,0,0,1.12-.99,1.94,1.94,0,0,0,.28-1.3,3.915,3.915,0,0,0-.48-1.32,10.479,10.479,0,0,0-.93-1.3q-0.5-.585-0.99-1.29a7.03,7.03,0,0,1-.81-1.47,4.008,4.008,0,0,1-.3-1.61,3.684,3.684,0,0,1,.56-1.77,4.1,4.1,0,0,1,3.87-2.1,5.624,5.624,0,0,1,2.42.75,8.9,8.9,0,0,1,2.24,1.75,9.39,9.39,0,0,1,1.34,1.89l-1.67,1.08A13.564,13.564,0,0,0,9616.14,7699.3Zm4.38,173.44-8.97,5.36-1.16-1.92,6.97-4.17-2.34-3.91-6.21,3.72-1.16-1.95,6.21-3.71-2.37-3.97-7.23,4.33-1.16-1.95,9.23-5.52Zm-16.3,9.54-14.81-7.17,3.74,10.5-2.2.78-5.48-15.56,0.04-.02,14.79,7.02-3.69-10.34,2.22-.79,5.48,15.55Zm-16.68-180.91,1.61-6.7-7.88-1.89-1.6,6.7-2.27-.54,3.72-15.51,2.27,0.54-1.59,6.61,7.88,1.89,1.58-6.61,2.29,0.55-3.72,15.51Zm-7.08,175.76a8.155,8.155,0,0,1,.93,3.02,9.542,9.542,0,0,1-.21,3.66,7.677,7.677,0,0,1-1.46,2.86,7.418,7.418,0,0,1-2.4,1.94,9.01,9.01,0,0,1-3.05.92,10.266,10.266,0,0,1-2.66-.01,8.519,8.519,0,0,1-2.2-.57l0.56-2.25a4.851,4.851,0,0,0,1.11.35,10.267,10.267,0,0,0,1.37.19,6.018,6.018,0,0,0,1.28-.02,7.351,7.351,0,0,0,2.43-.69,5.022,5.022,0,0,0,1.75-1.39,5.243,5.243,0,0,0,.98-2.01,6.852,6.852,0,0,0,.12-2.5,6.05,6.05,0,0,0-.7-2.26,5.061,5.061,0,0,0-1.42-1.65,5.388,5.388,0,0,0-2.02-.91,7.078,7.078,0,0,0-2.45-.11,8.261,8.261,0,0,0-1.51.32,3.843,3.843,0,0,0-1.22.58l0.35,2.89,3.06-.37,0.27,2.27-5.42.65-0.77-6.47a3.279,3.279,0,0,1,.85-0.68,12.4,12.4,0,0,1,2.71-1.21,8.065,8.065,0,0,1,1.43-.32,9.692,9.692,0,0,1,3.52.18,7.688,7.688,0,0,1,2.81,1.33A6.873,6.873,0,0,1,9580.46,7877.13Zm-11.24-192.65-0.68,13.69-2.35-.12,0.68-13.69-4.06-.2,0.11-2.24,10.61,0.52-0.11,2.24Zm-7.22,205.6-10.6-.64,0.13-2.24,4.2,0.26,0.81-13.69,2.35,0.14-0.81,13.69,4.06,0.24Zm-6.23-192.23a14.787,14.787,0,0,1-1.44.56,8.334,8.334,0,0,1-1.43.33,9.511,9.511,0,0,1-3.52-.14,7.73,7.73,0,0,1-2.83-1.3,6.98,6.98,0,0,1-1.98-2.24,8.328,8.328,0,0,1-.97-3.01,9.568,9.568,0,0,1,.18-3.66,7.791,7.791,0,0,1,1.43-2.88,7.4,7.4,0,0,1,2.38-1.96,8.779,8.779,0,0,1,3.04-.95,10.345,10.345,0,0,1,2.66-.03,8.961,8.961,0,0,1,2.2.55l-0.53,2.26a4.979,4.979,0,0,0-1.12-.34,10.33,10.33,0,0,0-1.36-.18,6.765,6.765,0,0,0-1.29.04,7.369,7.369,0,0,0-2.42.71,5.009,5.009,0,0,0-2.69,3.43,6.676,6.676,0,0,0-.1,2.5,6.016,6.016,0,0,0,.73,2.26,5.031,5.031,0,0,0,1.44,1.63,5.355,5.355,0,0,0,2.02.89,6.875,6.875,0,0,0,2.45.08,8.979,8.979,0,0,0,1.51-.33,3.7,3.7,0,0,0,1.21-.6l-0.37-2.88-3.06.4-0.29-2.27,5.41-.7,0.84,6.46a3.438,3.438,0,0,1-.84.69A10.492,10.492,0,0,1,9555.77,7697.85Zm-31.02-3.29,3.8,10.31-2.21.8-5.64-15.48,0.08-.03,14.89,7-3.85-10.46,2.19-.79,5.64,15.5-0.04.02Zm-11.04,15.76,7.18-4.4,1.19,1.94-9.18,5.61-8.33-13.6,8.92-5.45,1.17,1.91-6.93,4.24,2.38,3.88,6.17-3.78,1.19,1.93-6.18,3.78Zm-4.39,5.65-2.04,1.81-6.54-1.82c-0.09.09-.18,0.18-0.28,0.27l-1.75,1.55,3.79,4.26-1.74,1.55-10.6-11.92,3.25-2.89a7.987,7.987,0,0,1,1.95-1.3,5.4,5.4,0,0,1,2.02-.5,4.309,4.309,0,0,1,1.93.39,5.093,5.093,0,0,1,1.74,1.32,6.649,6.649,0,0,1,1.05,1.59,4.6,4.6,0,0,1,.43,1.86,4.542,4.542,0,0,1-.36,1.76Zm-9.49-4.79a3.663,3.663,0,0,0-.51-0.8,3.393,3.393,0,0,0-.73-0.6,3.105,3.105,0,0,0-.99-0.39,2.478,2.478,0,0,0-1.17.07,3.272,3.272,0,0,0-1.23.73l-1.81,1.61,3.8,4.27,1.73-1.53a3.39,3.39,0,0,0,.92-1.2,2.481,2.481,0,0,0,.24-1.15A2.592,2.592,0,0,0,9499.83,7711.18Zm-4.93,19.07-1.47,1.84-10.71-8.55-2.54,3.18-1.75-1.4,6.63-8.31,1.75,1.4-2.62,3.29Zm-20.12,8.83a1.7,1.7,0,0,0,1.27.16,4.5,4.5,0,0,0,1.39-.66,13.907,13.907,0,0,0,1.41-1.08,13.66,13.66,0,0,1,1.25-.95,5.428,5.428,0,0,1,1.41-.69,3.827,3.827,0,0,1,1.59-.17,4.792,4.792,0,0,1,1.85.65,4.259,4.259,0,0,1,1.68,1.66,4.477,4.477,0,0,1,.54,2.38,6.223,6.223,0,0,1-.85,2.78,8.42,8.42,0,0,1-1.17,1.61,11.08,11.08,0,0,1-1.41,1.27,7.517,7.517,0,0,1-1.49.89l-1.1-1.8a5.678,5.678,0,0,0,1.23-.7,8.981,8.981,0,0,0,1.16-.98,5.04,5.04,0,0,0,.86-1.11,4.066,4.066,0,0,0,.48-1.37,2.735,2.735,0,0,0-.11-1.42,2.02,2.02,0,0,0-1.01-1.1,1.924,1.924,0,0,0-1.3-.26,3.676,3.676,0,0,0-1.31.51,8.9,8.9,0,0,0-1.28.94c-0.39.33-.82,0.67-1.28,1.01a7.286,7.286,0,0,1-1.45.84,4.025,4.025,0,0,1-1.61.32,3.688,3.688,0,0,1-1.78-.53,4.069,4.069,0,0,1-2.16-3.84,5.5,5.5,0,0,1,.71-2.43,9.217,9.217,0,0,1,1.71-2.27,9.906,9.906,0,0,1,1.87-1.37l1.11,1.66a13.643,13.643,0,0,0-1.52,1.21,5.874,5.874,0,0,0-1.2,1.48,3.111,3.111,0,0,0-.47,1.98A1.853,1.853,0,0,0,9474.78,7739.08Zm4.26,20.16-6.65-1.78-2.09,7.82,6.65,1.78-0.61,2.25-15.4-4.13,0.6-2.25,6.57,1.76,2.09-7.82-6.56-1.76,0.61-2.27,15.4,4.13Zm-17.37,17.87,13.67,1.04-0.18,2.34-13.67-1.03-0.3,4.06-2.24-.17,0.8-10.6,2.24,0.17Zm-1.71,13.68,2.25,0.58a4.965,4.965,0,0,0-.37,1.11,8.962,8.962,0,0,0-.22,1.36,6.937,6.937,0,0,0,0,1.29,7.473,7.473,0,0,0,.65,2.44,5.139,5.139,0,0,0,1.37,1.77,5.211,5.211,0,0,0,1.99,1.01,7.034,7.034,0,0,0,2.5.17,6.134,6.134,0,0,0,2.27-.67,5.062,5.062,0,0,0,1.67-1.4,5.447,5.447,0,0,0,.95-2,7.307,7.307,0,0,0,.14-2.45,8.506,8.506,0,0,0-.29-1.52,3.941,3.941,0,0,0-.57-1.22l-2.88.3,0.31,3.06-2.27.24-0.56-5.43,6.47-.67a3.532,3.532,0,0,1,.68.86,13.626,13.626,0,0,1,.64,1.27,12.674,12.674,0,0,1,.52,1.46,8.129,8.129,0,0,1,.3,1.43,9.61,9.61,0,0,1-.24,3.52,7.793,7.793,0,0,1-1.37,2.8,6.93,6.93,0,0,1-2.29,1.91,8.041,8.041,0,0,1-3.04.89,9.429,9.429,0,0,1-3.65-.27,7.583,7.583,0,0,1-2.84-1.5,7.424,7.424,0,0,1-1.9-2.44,8.721,8.721,0,0,1-.87-3.06,10.667,10.667,0,0,1,.04-2.66A8.748,8.748,0,0,1,9459.96,7790.79Zm17.88,16.36-7.26,14.67,10.4-3.52,0.75,2.23-15.63,5.22-0.03-.08,7.4-14.7-10.56,3.58-0.74-2.22,15.65-5.23Zm-1.7,31.84,3.94-2.27-3.61-6.27,1.96-1.13,3.61,6.27,4.01-2.31-4.21-7.3,1.96-1.13,5.38,9.32-13.82,7.96-5.22-9.05,1.94-1.12Zm7.94,6.9a6.7,6.7,0,0,1,1.62-1.01,4.364,4.364,0,0,1,3.61.02l2.26-7.09,1.76,2.08-2,6.5a3.84,3.84,0,0,1,.27.29l1.5,1.78,4.36-3.67,1.5,1.78-12.19,10.28-2.81-3.32a7.89,7.89,0,0,1-1.24-1.99,5.4,5.4,0,0,1-.45-2.03,4.286,4.286,0,0,1,.44-1.92A5.144,5.144,0,0,1,9484.08,7845.89Zm0.65,4.63a3.173,3.173,0,0,0,.69,1.26l1.56,1.85,4.38-3.69-1.49-1.77a3.594,3.594,0,0,0-1.17-.96,2.506,2.506,0,0,0-1.15-.27,2.919,2.919,0,0,0-1.02.23,3.625,3.625,0,0,0-.8.49,3.193,3.193,0,0,0-.63.72,2.983,2.983,0,0,0-.41.98A2.419,2.419,0,0,0,9484.73,7850.52Zm11.92,12.57,8.83-10.48,1.8,1.52-8.83,10.48,3.11,2.62-1.44,1.72-8.13-6.85,1.45-1.71Zm12.3,9.05a5.893,5.893,0,0,0,1.44,1.23,3.152,3.152,0,0,0,1.97.52,1.829,1.829,0,0,0,1.41-.94,1.7,1.7,0,0,0,.19-1.27,4.508,4.508,0,0,0-.62-1.41,16.685,16.685,0,0,0-1.04-1.43,13.291,13.291,0,0,1-.92-1.27,6.6,6.6,0,0,1-.66-1.43,3.887,3.887,0,0,1-.12-1.6,4.787,4.787,0,0,1,.69-1.83,4.249,4.249,0,0,1,1.71-1.63,4.546,4.546,0,0,1,2.4-.48,6.063,6.063,0,0,1,2.75.92,8.4,8.4,0,0,1,1.58,1.22,10.416,10.416,0,0,1,1.23,1.44,7.969,7.969,0,0,1,.86,1.51l-1.84,1.05a6.029,6.029,0,0,0-.66-1.25,8.923,8.923,0,0,0-.95-1.18,5.259,5.259,0,0,0-1.09-.9,4.292,4.292,0,0,0-1.36-.51,2.839,2.839,0,0,0-1.42.07,2.118,2.118,0,0,0-1.13.98,2,2,0,0,0-.29,1.3,3.887,3.887,0,0,0,.47,1.32,9.4,9.4,0,0,0,.91,1.31c0.33,0.4.65,0.83,0.98,1.3a7.318,7.318,0,0,1,.8,1.48,4.172,4.172,0,0,1,.28,1.61,3.749,3.749,0,0,1-.59,1.77,4.067,4.067,0,0,1-1.66,1.61,4.206,4.206,0,0,1-2.23.45,5.684,5.684,0,0,1-2.41-.78,8.992,8.992,0,0,1-2.22-1.77,9.594,9.594,0,0,1-1.32-1.9l1.69-1.07A13.211,13.211,0,0,0,9508.95,7872.14Zm28.63-1.77-1.68,6.68,7.85,1.97,1.68-6.68,2.26,0.57-3.88,15.47-2.27-.57,1.66-6.59-7.85-1.97-1.66,6.59-2.28-.57,3.88-15.47Zm78.37-13.79,2.06-1.79,6.52,1.89c0.1-.09.19-0.18,0.29-0.27l1.76-1.53-3.74-4.3,1.75-1.53,10.48,12.02-3.28,2.87a7.758,7.758,0,0,1-1.97,1.27,5.367,5.367,0,0,1-2.02.48,4.223,4.223,0,0,1-1.93-.41,5.07,5.07,0,0,1-1.72-1.34,6.352,6.352,0,0,1-1.03-1.6,4.6,4.6,0,0,1-.42-1.87,4.673,4.673,0,0,1,.38-1.74Zm9.45,4.89a3.3,3.3,0,0,0,.5.8,3.4,3.4,0,0,0,.72.61,2.9,2.9,0,0,0,.99.4,2.555,2.555,0,0,0,1.16-.06,3.267,3.267,0,0,0,1.25-.71l1.82-1.59-3.76-4.32-1.74,1.52a3.778,3.778,0,0,0-.94,1.18,2.674,2.674,0,0,0-.25,1.16A2.637,2.637,0,0,0,9625.4,7861.47Zm5.11-19.01,1.49-1.82,10.62,8.66,2.57-3.15,1.74,1.42-6.72,8.23-1.74-1.42,2.66-3.25Zm20.21-8.61a1.657,1.657,0,0,0-1.27-.17,4.347,4.347,0,0,0-1.4.64,15.271,15.271,0,0,0-1.41,1.06,12.884,12.884,0,0,1-1.26.94,6.167,6.167,0,0,1-1.42.68,3.873,3.873,0,0,1-1.6.15,4.761,4.761,0,0,1-1.84-.67,4.231,4.231,0,0,1-1.66-1.67,4.537,4.537,0,0,1-.51-2.4,5.934,5.934,0,0,1,.88-2.76,8.021,8.021,0,0,1,1.19-1.6,11.067,11.067,0,0,1,1.41-1.26,8.291,8.291,0,0,1,1.5-.87l1.09,1.81a6.2,6.2,0,0,0-1.25.69,8.823,8.823,0,0,0-1.16.96,5.162,5.162,0,0,0-.88,1.11,4.03,4.03,0,0,0-.49,1.36,2.833,2.833,0,0,0,.09,1.42,2.142,2.142,0,0,0,1,1.12,1.932,1.932,0,0,0,1.3.27,3.818,3.818,0,0,0,1.31-.49,9.783,9.783,0,0,0,1.3-.93c0.39-.33.82-0.67,1.29-1a6.807,6.807,0,0,1,1.46-.82,3.852,3.852,0,0,1,1.61-.31,3.684,3.684,0,0,1,1.77.56,4.132,4.132,0,0,1,1.65,1.64,4.241,4.241,0,0,1,.47,2.21,5.532,5.532,0,0,1-.73,2.43,8.883,8.883,0,0,1-1.74,2.24,9.89,9.89,0,0,1-1.88,1.36l-1.1-1.67a13.948,13.948,0,0,0,1.54-1.2,5.841,5.841,0,0,0,1.21-1.46,3.137,3.137,0,0,0,.49-1.98A1.82,1.82,0,0,0,9650.72,7833.85Zm-3.49-21.97,6.67,1.71,2.01-7.84-6.67-1.71,0.58-2.26,15.45,3.97-0.58,2.26-6.58-1.69-2.02,7.84,6.59,1.69-0.59,2.28-15.45-3.97Zm17.18-18.04-13.67-.89,0.15-2.35,13.68,0.89,0.26-4.06,2.24,0.15-0.69,10.6-2.24-.15Z" transform="translate(-9458.94 -7681.91)"/>
</svg>
