<?xml version="1.0" encoding="utf-8"?>
<!-- Generator: Adobe Illustrator 25.2.3, SVG Export Plug-In . SVG Version: 6.00 Build 0)  -->
<svg version="1.1" id="レイヤー_1" xmlns="http://www.w3.org/2000/svg" xmlns:xlink="http://www.w3.org/1999/xlink" x="0px"
	 y="0px" width="16px" height="16px" viewBox="0 0 16 16" style="enable-background:new 0 0 16 16;" xml:space="preserve">
<style type="text/css">
	.st0{fill:#FFFFFF;}
	.st1{fill-rule:evenodd;clip-rule:evenodd;fill:#CCCCCC;}
	.st2{fill:#CCCCCC;}
	.st3{fill:#DC4600;}
</style>
<path class="st0" d="M15.696,0H5.688C5.6,0,5.521,0.034,5.463,0.093L3.125,2.185C3.052,2.253,3,2.333,3,2.434
	c-0.001,4.086,0,9.171,0,13.258C3,15.858,3.139,16,3.305,16h12.392C15.863,16,16,15.858,16,15.691V0.31C16,0.136,15.863,0,15.696,0z
	"/>
<g>
	<path class="st1" d="M15.696,0H5.688C5.6,0,5.521,0.034,5.463,0.093L3.125,2.185C3.052,2.253,3,2.333,3,2.434
		c-0.001,4.086,0,9.171,0,13.258C3,15.858,3.139,16,3.305,16h12.392C15.863,16,16,15.858,16,15.691V0.31C16,0.136,15.863,0,15.696,0
		z M15,15H4V2.744L5.949,1H15V15z"/>
	<rect x="10" y="11" class="st2" width="4" height="1"/>
	<rect x="5" y="13" class="st2" width="9" height="1"/>
	<g>
		<g>
			<path class="st2" d="M9.969,7V3.55c-1.418,0.239-2.5,1.464-2.5,2.95c0,1.657,1.343,3,3,3c1.486,0,2.711-1.083,2.95-2.5H9.969z"/>
		</g>
		<g>
			<path class="st2" d="M11,3c1.657,0,3,1.343,3,3h-3V3z"/>
		</g>
	</g>
	<g>
		<rect y="2" class="st3" width="9" height="9"/>
	</g>
	<g>
		<path class="st0" d="M5.958,6.849C5.663,7.095,5.242,7.218,4.694,7.218H3.646v1.812H2.6V3.991h2.163
			c0.499,0,0.896,0.13,1.193,0.39S6.4,5.043,6.4,5.587C6.4,6.182,6.253,6.603,5.958,6.849z M5.154,5.034
			c-0.133-0.112-0.32-0.167-0.56-0.167H3.646V6.35h0.949c0.24,0,0.427-0.061,0.56-0.181s0.2-0.312,0.2-0.574
			S5.288,5.146,5.154,5.034z"/>
	</g>
</g>
</svg>
