<?xml version="1.0" encoding="utf-8"?>
<!-- Generator: Adobe Illustrator 25.2.3, SVG Export Plug-In . SVG Version: 6.00 Build 0)  -->
<svg version="1.1" id="レイヤー_1" xmlns="http://www.w3.org/2000/svg" xmlns:xlink="http://www.w3.org/1999/xlink" x="0px"
	 y="0px" width="14px" height="16px" viewBox="0 0 14 16" style="enable-background:new 0 0 14 16;" xml:space="preserve">
<style type="text/css">
	.st0{fill:#FFFFFF;}
	.st1{fill:#CCCCCC;}
	.st2{fill:#E84709;}
</style>
<path class="st0" d="M13.696,0H3.688C3.6,0,3.521,0.034,3.463,0.093L1.125,2.185C1.052,2.253,1,2.333,1,2.434
	c-0.001,4.086,0,9.171,0,13.258C1,15.858,1.139,16,1.305,16h12.392C13.863,16,14,15.858,14,15.691V0.31C14,0.136,13.863,0,13.696,0z
	"/>
<g>
	<path class="st1" d="M13.696,0H3.688C3.6,0,3.521,0.034,3.463,0.093L1.125,2.185C1.052,2.253,1,2.333,1,2.434
		c-0.001,4.086,0,9.171,0,13.258C1,15.858,1.139,16,1.305,16h12.392C13.863,16,14,15.858,14,15.691V0.31C14,0.136,13.863,0,13.696,0
		z M13,15H2l0-3.538l0-8.718L3.949,1H13V15z"/>
	<rect y="2" class="st2" width="8" height="3"/>
	<path class="st2" d="M11.078,11.867c-0.263-0.264-0.799-0.536-1.115-0.684c-0.755-0.75-1.735-2.452-1.922-3.199
		C8.16,7.663,8.357,7.072,8.357,6.688c0-1.573-1.715-1.573-1.715,0c0,0.385,0.197,0.975,0.316,1.297
		c-0.187,0.748-1.168,2.45-1.923,3.2c-0.317,0.148-0.852,0.419-1.115,0.682c-0.001,0.001-0.002,0.002-0.003,0.003
		c-0.348,0.353-0.419,0.665-0.417,0.865c0.001,0.209,0.083,0.402,0.223,0.54c0.145,0.146,0.341,0.188,0.55,0.225
		c0.2,0,0.511-0.073,0.859-0.421c0.283-0.281,0.57-0.867,0.709-1.171c0.829-0.396,2.493-0.396,3.319,0.002
		c0.139,0.304,0.426,0.888,0.704,1.168c0.348,0.35,0.66,0.423,0.86,0.423h0c0.21,0,0.405-0.08,0.542-0.218
		c0.149-0.144,0.231-0.339,0.233-0.551C11.501,12.529,11.43,12.217,11.078,11.867z M7.5,10.612c-0.264,0-0.528,0.016-0.784,0.047
		C7.005,10.224,7.279,9.751,7.5,9.303c0.221,0.448,0.495,0.92,0.784,1.356C8.028,10.628,7.764,10.612,7.5,10.612z"/>
	<g>
		<path class="st0" d="M2.755,3.693c-0.11,0.092-0.27,0.135-0.476,0.135H1.883v0.69H1.488V2.613h0.815
			c0.188,0,0.341,0.049,0.45,0.146c0.111,0.1,0.17,0.248,0.17,0.453C2.924,3.441,2.865,3.602,2.755,3.693z M2.453,3.008
			C2.402,2.965,2.33,2.943,2.241,2.943H1.883v0.562h0.358c0.089,0,0.161-0.029,0.212-0.072C2.5,3.389,2.527,3.316,2.527,3.219
			C2.527,3.121,2.5,3.049,2.453,3.008z"/>
		<path class="st0" d="M4.359,2.654C4.49,2.697,4.6,2.773,4.682,2.891c0.067,0.1,0.112,0.203,0.133,0.309
			c0.027,0.115,0.041,0.219,0.041,0.32c0,0.25-0.055,0.467-0.154,0.643C4.564,4.398,4.351,4.518,4.064,4.518h-0.82V2.613h0.82
			C4.184,2.613,4.279,2.627,4.359,2.654z M3.627,2.943v1.244h0.367c0.19,0,0.32-0.096,0.395-0.277
			c0.043-0.102,0.059-0.228,0.059-0.363c0-0.193-0.029-0.348-0.088-0.451C4.301,2.994,4.177,2.943,3.994,2.943H3.627z"/>
		<path class="st0" d="M5.15,2.613h1.361v0.336H5.545v0.44h0.85v0.332h-0.85v0.797H5.15V2.613z"/>
	</g>
</g>
</svg>
